<svg width="32" height="32" viewBox="0 0 32 32" fill="none" xmlns="http://www.w3.org/2000/svg">
<g filter="url(#filter0_di_1_14)">
<circle cx="16" cy="16" r="16" fill="#B48348"/>
</g>
<mask id="path-2-outside-1_1_14" maskUnits="userSpaceOnUse" x="4" y="9" width="23" height="15" fill="black">
<rect fill="white" x="4" y="9" width="23" height="15"/>
<path d="M5.73338 11.6V11.024H9.15738C11.504 11.024 12.7254 11.0293 12.8214 11.04C14.144 11.136 15.1414 11.536 15.8134 12.24C16.2294 12.688 16.4907 13.216 16.5974 13.824C16.6187 13.92 16.6294 14.0853 16.6294 14.32C16.6294 14.6187 16.6027 14.864 16.5494 15.056C16.4214 15.632 16.1227 16.128 15.6534 16.544C15.056 17.056 14.2987 17.376 13.3814 17.504C13.0934 17.5467 12.4427 17.568 11.4294 17.568H10.1334V19.2V20.848H10.9974H11.8614V21.424V22H11.6534C11.664 22 11.152 21.9893 10.1174 21.968C9.23204 21.9573 8.34671 21.9573 7.46137 21.968L5.94138 22H5.73338V21.424V20.848H6.59738H7.46137V16.512V12.176H6.59738H5.73338V11.6ZM12.4374 12.208C12.3734 12.1973 11.9467 12.1867 11.1574 12.176H10.0374V14.336V16.512H10.9974C11.936 16.512 12.544 16.4693 12.8214 16.384C13.184 16.2773 13.4347 16.112 13.5734 15.888C13.7334 15.6107 13.808 15.0347 13.7974 14.16C13.7867 13.6587 13.7547 13.3067 13.7014 13.104C13.6587 12.9227 13.584 12.7787 13.4774 12.672C13.2854 12.448 12.9387 12.2933 12.4374 12.208ZM21.7035 10.416V10H22.2795H22.8555V10.416V10.832L23.0475 10.848C23.9222 10.976 24.6155 11.3013 25.1275 11.824C25.6288 12.3573 25.8688 13.0293 25.8475 13.84C25.8155 14.32 25.6075 14.6613 25.2235 14.864C24.8608 15.056 24.4768 15.056 24.0715 14.864C23.6875 14.6507 23.4795 14.3147 23.4475 13.856C23.4368 13.3227 23.6502 12.9493 24.0875 12.736C24.1195 12.7147 24.1568 12.6987 24.1995 12.688L24.2955 12.64L24.1995 12.56C23.8902 12.272 23.4742 12.0853 22.9515 12L22.8555 11.984V13.488V14.992L23.0315 15.024C23.9062 15.216 24.5995 15.6587 25.1115 16.352C25.8155 17.28 26.0182 18.352 25.7195 19.568C25.4635 20.5707 24.8875 21.2907 23.9915 21.728C23.7675 21.8453 23.4848 21.936 23.1435 22L22.8875 22.064H22.8555V22.48V22.896H22.2795H21.7035V22.48V22.064L21.5755 22.048C20.8715 21.952 20.2795 21.712 19.7995 21.328C19.1062 20.7627 18.7435 19.9893 18.7115 19.008C18.7008 18.6987 18.7595 18.432 18.8875 18.208C19.0155 17.9947 19.2288 17.8347 19.5275 17.728C19.7622 17.664 19.9915 17.6587 20.2155 17.712C20.6635 17.8293 20.9462 18.1013 21.0635 18.528C21.1275 18.752 21.1275 18.9813 21.0635 19.216C20.9782 19.536 20.7862 19.776 20.4875 19.936C20.4448 19.9573 20.3755 19.984 20.2795 20.016L20.1995 20.048C20.1675 20.048 20.2475 20.144 20.4395 20.336C20.6208 20.5173 20.8822 20.6667 21.2235 20.784C21.4475 20.8587 21.5968 20.896 21.6715 20.896C21.6928 20.896 21.7035 20.3253 21.7035 19.184V17.472L21.4635 17.408C20.9835 17.312 20.5088 17.0987 20.0395 16.768C19.2182 16.1387 18.7755 15.3333 18.7115 14.352C18.7115 14.2773 18.7115 14.208 18.7115 14.144C18.7115 13.2053 18.9995 12.4373 19.5755 11.84C20.0555 11.328 20.7275 10.9973 21.5915 10.848L21.7035 10.832V10.416ZM21.7035 13.36C21.7035 12.4533 21.6982 12 21.6875 12L21.5755 12.032C21.0635 12.16 20.7168 12.4107 20.5355 12.784C20.4502 12.944 20.4022 13.1147 20.3915 13.296C20.3808 13.6267 20.4928 13.9253 20.7275 14.192C20.9835 14.448 21.2822 14.6187 21.6235 14.704L21.7035 14.736V13.36ZM23.0315 17.792C22.9355 17.7493 22.8822 17.728 22.8715 17.728C22.8608 17.728 22.8555 18.2507 22.8555 19.296C22.8555 20.352 22.8608 20.88 22.8715 20.88L23.3515 20.704C23.6928 20.5227 23.9275 20.2613 24.0555 19.92C24.3115 19.248 24.1782 18.6667 23.6555 18.176C23.4955 18.016 23.2875 17.888 23.0315 17.792Z"/>
</mask>
<path d="M5.73338 11.6V11.024H9.15738C11.504 11.024 12.7254 11.0293 12.8214 11.04C14.144 11.136 15.1414 11.536 15.8134 12.24C16.2294 12.688 16.4907 13.216 16.5974 13.824C16.6187 13.92 16.6294 14.0853 16.6294 14.32C16.6294 14.6187 16.6027 14.864 16.5494 15.056C16.4214 15.632 16.1227 16.128 15.6534 16.544C15.056 17.056 14.2987 17.376 13.3814 17.504C13.0934 17.5467 12.4427 17.568 11.4294 17.568H10.1334V19.2V20.848H10.9974H11.8614V21.424V22H11.6534C11.664 22 11.152 21.9893 10.1174 21.968C9.23204 21.9573 8.34671 21.9573 7.46137 21.968L5.94138 22H5.73338V21.424V20.848H6.59738H7.46137V16.512V12.176H6.59738H5.73338V11.6ZM12.4374 12.208C12.3734 12.1973 11.9467 12.1867 11.1574 12.176H10.0374V14.336V16.512H10.9974C11.936 16.512 12.544 16.4693 12.8214 16.384C13.184 16.2773 13.4347 16.112 13.5734 15.888C13.7334 15.6107 13.808 15.0347 13.7974 14.16C13.7867 13.6587 13.7547 13.3067 13.7014 13.104C13.6587 12.9227 13.584 12.7787 13.4774 12.672C13.2854 12.448 12.9387 12.2933 12.4374 12.208ZM21.7035 10.416V10H22.2795H22.8555V10.416V10.832L23.0475 10.848C23.9222 10.976 24.6155 11.3013 25.1275 11.824C25.6288 12.3573 25.8688 13.0293 25.8475 13.84C25.8155 14.32 25.6075 14.6613 25.2235 14.864C24.8608 15.056 24.4768 15.056 24.0715 14.864C23.6875 14.6507 23.4795 14.3147 23.4475 13.856C23.4368 13.3227 23.6502 12.9493 24.0875 12.736C24.1195 12.7147 24.1568 12.6987 24.1995 12.688L24.2955 12.64L24.1995 12.56C23.8902 12.272 23.4742 12.0853 22.9515 12L22.8555 11.984V13.488V14.992L23.0315 15.024C23.9062 15.216 24.5995 15.6587 25.1115 16.352C25.8155 17.28 26.0182 18.352 25.7195 19.568C25.4635 20.5707 24.8875 21.2907 23.9915 21.728C23.7675 21.8453 23.4848 21.936 23.1435 22L22.8875 22.064H22.8555V22.48V22.896H22.2795H21.7035V22.48V22.064L21.5755 22.048C20.8715 21.952 20.2795 21.712 19.7995 21.328C19.1062 20.7627 18.7435 19.9893 18.7115 19.008C18.7008 18.6987 18.7595 18.432 18.8875 18.208C19.0155 17.9947 19.2288 17.8347 19.5275 17.728C19.7622 17.664 19.9915 17.6587 20.2155 17.712C20.6635 17.8293 20.9462 18.1013 21.0635 18.528C21.1275 18.752 21.1275 18.9813 21.0635 19.216C20.9782 19.536 20.7862 19.776 20.4875 19.936C20.4448 19.9573 20.3755 19.984 20.2795 20.016L20.1995 20.048C20.1675 20.048 20.2475 20.144 20.4395 20.336C20.6208 20.5173 20.8822 20.6667 21.2235 20.784C21.4475 20.8587 21.5968 20.896 21.6715 20.896C21.6928 20.896 21.7035 20.3253 21.7035 19.184V17.472L21.4635 17.408C20.9835 17.312 20.5088 17.0987 20.0395 16.768C19.2182 16.1387 18.7755 15.3333 18.7115 14.352C18.7115 14.2773 18.7115 14.208 18.7115 14.144C18.7115 13.2053 18.9995 12.4373 19.5755 11.84C20.0555 11.328 20.7275 10.9973 21.5915 10.848L21.7035 10.832V10.416ZM21.7035 13.36C21.7035 12.4533 21.6982 12 21.6875 12L21.5755 12.032C21.0635 12.16 20.7168 12.4107 20.5355 12.784C20.4502 12.944 20.4022 13.1147 20.3915 13.296C20.3808 13.6267 20.4928 13.9253 20.7275 14.192C20.9835 14.448 21.2822 14.6187 21.6235 14.704L21.7035 14.736V13.36ZM23.0315 17.792C22.9355 17.7493 22.8822 17.728 22.8715 17.728C22.8608 17.728 22.8555 18.2507 22.8555 19.296C22.8555 20.352 22.8608 20.88 22.8715 20.88L23.3515 20.704C23.6928 20.5227 23.9275 20.2613 24.0555 19.92C24.3115 19.248 24.1782 18.6667 23.6555 18.176C23.4955 18.016 23.2875 17.888 23.0315 17.792Z" fill="#211E1A" fill-opacity="0.92"/>
<path d="M5.73338 11.024V10.024H4.73338V11.024H5.73338ZM12.8214 11.04L12.7109 12.0339L12.7299 12.036L12.749 12.0374L12.8214 11.04ZM15.8134 12.24L16.5462 11.5595L16.5367 11.5495L15.8134 12.24ZM16.5974 13.824L15.6124 13.9968L15.6163 14.019L15.6212 14.0409L16.5974 13.824ZM16.5494 15.056L15.5859 14.7884L15.5789 14.8135L15.5732 14.8391L16.5494 15.056ZM15.6534 16.544L16.3042 17.3033L16.3105 17.2979L16.3167 17.2923L15.6534 16.544ZM13.3814 17.504L13.2432 16.5136L13.2348 16.5148L13.3814 17.504ZM10.1334 17.568V16.568H9.13338V17.568H10.1334ZM10.1334 20.848H9.13338V21.848H10.1334V20.848ZM11.8614 20.848H12.8614V19.848H11.8614V20.848ZM11.8614 22V23H12.8614V22H11.8614ZM10.1174 21.968L10.138 20.9682L10.1294 20.9681L10.1174 21.968ZM7.46137 21.968L7.44933 20.968L7.44033 20.9682L7.46137 21.968ZM5.94138 22V23H5.9519L5.96242 22.9998L5.94138 22ZM5.73338 22H4.73338V23H5.73338V22ZM5.73338 20.848V19.848H4.73338V20.848H5.73338ZM7.46137 20.848V21.848H8.46138V20.848H7.46137ZM7.46137 12.176H8.46138V11.176H7.46137V12.176ZM5.73338 12.176H4.73338V13.176H5.73338V12.176ZM12.4374 12.208L12.6052 11.2222L12.6018 11.2216L12.4374 12.208ZM11.1574 12.176L11.1709 11.176H11.1574V12.176ZM10.0374 12.176V11.176H9.03738V12.176H10.0374ZM10.0374 16.512H9.03738V17.512H10.0374V16.512ZM12.8214 16.384L12.5392 15.4246L12.5273 15.4282L12.8214 16.384ZM13.5734 15.888L14.4236 16.4144L14.4318 16.4012L14.4396 16.3877L13.5734 15.888ZM13.7974 14.16L14.7973 14.1478L14.7971 14.1387L13.7974 14.16ZM13.7014 13.104L12.728 13.333L12.731 13.3458L12.7343 13.3585L13.7014 13.104ZM13.4774 12.672L12.7181 13.3228L12.7431 13.352L12.7703 13.3791L13.4774 12.672ZM5.73338 11.6H6.73338V11.024H5.73338H4.73338V11.6H5.73338ZM5.73338 11.024V12.024H9.15738V11.024V10.024H5.73338V11.024ZM9.15738 11.024V12.024C10.3303 12.024 11.2206 12.0253 11.829 12.028C12.1335 12.0293 12.3655 12.031 12.5262 12.0329C12.7252 12.0353 12.7501 12.0382 12.7109 12.0339L12.8214 11.04L12.9318 10.0461C12.8446 10.0364 12.6809 10.0347 12.5505 10.0331C12.3819 10.031 12.1439 10.0293 11.8377 10.028C11.2248 10.0253 10.3311 10.024 9.15738 10.024V11.024ZM12.8214 11.04L12.749 12.0374C13.9148 12.122 14.6432 12.4624 15.09 12.9305L15.8134 12.24L16.5367 11.5495C15.6395 10.6096 14.3733 10.15 12.8938 10.0426L12.8214 11.04ZM15.8134 12.24L15.0806 12.9205C15.364 13.2256 15.5387 13.5768 15.6124 13.9968L16.5974 13.824L17.5823 13.6512C17.4427 12.8552 17.0948 12.1504 16.5462 11.5595L15.8134 12.24ZM16.5974 13.824L15.6212 14.0409C15.6157 14.0163 15.6195 14.0234 15.6235 14.0844C15.627 14.1389 15.6294 14.2161 15.6294 14.32H16.6294H17.6294C17.6294 14.0849 17.6211 13.8211 17.5736 13.6071L16.5974 13.824ZM16.6294 14.32H15.6294C15.6294 14.5685 15.6062 14.7153 15.5859 14.7884L16.5494 15.056L17.5129 15.3236C17.5993 15.0127 17.6294 14.6689 17.6294 14.32H16.6294ZM16.5494 15.056L15.5732 14.8391C15.4939 15.1961 15.3123 15.5101 14.9901 15.7957L15.6534 16.544L16.3167 17.2923C16.9332 16.7459 17.3489 16.0679 17.5256 15.2729L16.5494 15.056ZM15.6534 16.544L15.0026 15.7847C14.5746 16.1516 14.0052 16.4073 13.2432 16.5136L13.3814 17.504L13.5196 18.4944C14.5922 18.3447 15.5375 17.9604 16.3042 17.3033L15.6534 16.544ZM13.3814 17.504L13.2348 16.5148C13.0343 16.5445 12.4632 16.568 11.4294 16.568V17.568V18.568C12.4222 18.568 13.1524 18.5488 13.5279 18.4932L13.3814 17.504ZM11.4294 17.568V16.568H10.1334V17.568V18.568H11.4294V17.568ZM10.1334 17.568H9.13338V19.2H10.1334H11.1334V17.568H10.1334ZM10.1334 19.2H9.13338V20.848H10.1334H11.1334V19.2H10.1334ZM10.1334 20.848V21.848H10.9974V20.848V19.848H10.1334V20.848ZM10.9974 20.848V21.848H11.8614V20.848V19.848H10.9974V20.848ZM11.8614 20.848H10.8614V21.424H11.8614H12.8614V20.848H11.8614ZM11.8614 21.424H10.8614V22H11.8614H12.8614V21.424H11.8614ZM11.8614 22V21H11.6534V22V23H11.8614V22ZM11.6534 22V23C11.6554 23 11.6601 23 11.6661 22.9999C11.6692 22.9999 11.6766 22.9997 11.681 22.9996C11.688 22.9994 11.7075 22.9985 11.72 22.9978C11.7497 22.9954 11.9263 22.9621 12.0672 22.9104C12.6533 21.9803 11.922 21.0367 11.8095 21.0122C11.7833 21.0084 11.7454 21.0042 11.7337 21.0032C11.7272 21.0027 11.7164 21.002 11.7122 21.0017C11.6997 21.001 11.6894 21.0006 11.6894 21.0006C11.6865 21.0005 11.6843 21.0005 11.6831 21.0004C11.6792 21.0003 11.6753 21.0002 11.6736 21.0002C11.6691 21.0001 11.6627 20.9999 11.6551 20.9997C11.6396 20.9994 11.616 20.9989 11.5846 20.9982C11.5217 20.9969 11.4262 20.9949 11.2982 20.9922C11.0421 20.9869 10.6553 20.9789 10.138 20.9682L10.1174 21.968L10.0968 22.9678C10.6141 22.9785 11.0007 22.9865 11.2565 22.9918C11.3845 22.9944 11.4797 22.9964 11.5421 22.9978C11.5734 22.9984 11.5962 22.9989 11.6107 22.9993C11.6181 22.9994 11.6226 22.9995 11.6249 22.9996C11.6266 22.9996 11.6252 22.9996 11.6226 22.9995C11.6218 22.9995 11.6198 22.9994 11.6171 22.9993C11.6158 22.9993 11.6136 22.9992 11.6107 22.9991C11.6086 22.999 11.6025 22.9987 11.5948 22.9983C11.5906 22.998 11.5799 22.9973 11.5733 22.9968C11.5617 22.9958 11.5238 22.9915 11.4976 22.9878C11.3851 22.9633 10.6537 22.0197 11.2399 21.0896C11.3808 21.0379 11.5574 21.0046 11.587 21.0022C11.5996 21.0015 11.6191 21.0006 11.626 21.0004C11.6304 21.0003 11.6378 21.0001 11.6408 21.0001C11.6468 21 11.6514 21 11.6534 21V22ZM10.1174 21.968L10.1294 20.9681C9.23606 20.9573 8.34269 20.9573 7.44933 20.9681L7.46137 21.968L7.47342 22.9679C8.35072 22.9574 9.22803 22.9574 10.1053 22.9679L10.1174 21.968ZM7.46137 21.968L7.44033 20.9682L5.92033 21.0002L5.94138 22L5.96242 22.9998L7.48242 22.9678L7.46137 21.968ZM5.94138 22V21H5.73338V22V23H5.94138V22ZM5.73338 22H6.73338V21.424H5.73338H4.73338V22H5.73338ZM5.73338 21.424H6.73338V20.848H5.73338H4.73338V21.424H5.73338ZM5.73338 20.848V21.848H6.59737V20.848V19.848H5.73338V20.848ZM6.59737 20.848V21.848H7.46137V20.848V19.848H6.59737V20.848ZM7.46137 20.848H8.46138V16.512H7.46137H6.46137V20.848H7.46137ZM7.46137 16.512H8.46138V12.176H7.46137H6.46137V16.512H7.46137ZM7.46137 12.176V11.176H6.59737V12.176V13.176H7.46137V12.176ZM6.59737 12.176V11.176H5.73338V12.176V13.176H6.59737V12.176ZM5.73338 12.176H6.73338V11.6H5.73338H4.73338V12.176H5.73338ZM12.4374 12.208L12.6018 11.2216C12.5126 11.2067 12.4056 11.2027 12.3648 11.2009C12.2945 11.1979 12.2034 11.195 12.0944 11.1923C11.8753 11.1868 11.5668 11.1814 11.1709 11.1761L11.1574 12.176L11.1439 13.1759C11.5373 13.1812 11.8368 13.1865 12.0444 13.1917C12.1487 13.1943 12.2256 13.1968 12.2779 13.1991C12.3044 13.2002 12.3201 13.2011 12.3276 13.2016C12.3466 13.2029 12.3173 13.2018 12.273 13.1944L12.4374 12.208ZM11.1574 12.176V11.176H10.0374V12.176V13.176H11.1574V12.176ZM10.0374 12.176H9.03738V14.336H10.0374H11.0374V12.176H10.0374ZM10.0374 14.336H9.03738V16.512H10.0374H11.0374V14.336H10.0374ZM10.0374 16.512V17.512H10.9974V16.512V15.512H10.0374V16.512ZM10.9974 16.512V17.512C11.4791 17.512 11.8912 17.5011 12.2274 17.4775C12.5433 17.4554 12.861 17.4181 13.1155 17.3398L12.8214 16.384L12.5273 15.4282C12.5292 15.4276 12.5208 15.4303 12.4988 15.4348C12.4774 15.4393 12.4476 15.4446 12.4083 15.4503C12.3288 15.4618 12.223 15.4729 12.0874 15.4825C11.8155 15.5015 11.4544 15.512 10.9974 15.512V16.512ZM12.8214 16.384L13.1035 17.3434C13.6008 17.1971 14.1087 16.923 14.4236 16.4144L13.5734 15.888L12.7231 15.3616C12.7401 15.3342 12.752 15.3313 12.7308 15.3452C12.7064 15.3613 12.6488 15.3924 12.5392 15.4246L12.8214 16.384ZM13.5734 15.888L14.4396 16.3877C14.619 16.0767 14.6983 15.7063 14.7411 15.3766C14.7867 15.0249 14.803 14.6112 14.7973 14.1478L13.7974 14.16L12.7975 14.1722C12.8025 14.5835 12.7868 14.8951 12.7577 15.1194C12.7258 15.3657 12.6877 15.422 12.7072 15.3883L13.5734 15.888ZM13.7974 14.16L14.7971 14.1387C14.7865 13.6373 14.755 13.1785 14.6684 12.8495L13.7014 13.104L12.7343 13.3585C12.7544 13.4348 12.7869 13.68 12.7976 14.1813L13.7974 14.16ZM13.7014 13.104L14.6748 12.875C14.5995 12.5551 14.4504 12.2308 14.1845 11.9649L13.4774 12.672L12.7703 13.3791C12.7458 13.3547 12.7319 13.3325 12.7256 13.3203C12.7198 13.3092 12.7228 13.3111 12.728 13.333L13.7014 13.104ZM13.4774 12.672L14.2366 12.0212C13.8161 11.5306 13.1854 11.3209 12.6052 11.2222L12.4374 12.208L12.2696 13.1938C12.4637 13.2269 12.59 13.2673 12.6659 13.3012C12.7414 13.3349 12.742 13.3507 12.7181 13.3228L13.4774 12.672ZM21.7035 10V9H20.7035V10H21.7035ZM22.8555 10H23.8555V9H22.8555V10ZM22.8555 10.832H21.8555V11.7521L22.7725 11.8285L22.8555 10.832ZM23.0475 10.848L23.1923 9.85854L23.1615 9.85404L23.1305 9.85145L23.0475 10.848ZM25.1275 11.824L25.8561 11.1391L25.8491 11.1316L25.8419 11.1242L25.1275 11.824ZM25.8475 13.84L26.8453 13.9065L26.8466 13.8864L26.8472 13.8663L25.8475 13.84ZM25.2235 14.864L24.7567 13.9796L24.7556 13.9802L25.2235 14.864ZM24.0715 14.864L23.5859 15.7382L23.6142 15.7539L23.6434 15.7677L24.0715 14.864ZM23.4475 13.856L22.4477 13.876L22.4482 13.9008L22.4499 13.9256L23.4475 13.856ZM24.0875 12.736L24.5259 13.6348L24.5863 13.6053L24.6422 13.5681L24.0875 12.736ZM24.1995 12.688L24.442 13.6581L24.5485 13.6315L24.6467 13.5824L24.1995 12.688ZM24.2955 12.64L24.7427 13.5344L26.1103 12.8506L24.9357 11.8718L24.2955 12.64ZM24.1995 12.56L23.5181 13.2919L23.5382 13.3106L23.5593 13.3282L24.1995 12.56ZM22.9515 12L22.7871 12.9864L22.7904 12.9869L22.9515 12ZM22.8555 11.984L23.0199 10.9976L21.8555 10.8035V11.984H22.8555ZM22.8555 14.992H21.8555V15.8266L22.6766 15.9759L22.8555 14.992ZM23.0315 15.024L23.2459 14.0473L23.2282 14.0434L23.2104 14.0401L23.0315 15.024ZM25.1115 16.352L24.307 16.9461L24.3148 16.9564L25.1115 16.352ZM25.7195 19.568L26.6885 19.8154L26.6906 19.8065L25.7195 19.568ZM23.9915 21.728L23.5529 20.8293L23.5401 20.8356L23.5275 20.8422L23.9915 21.728ZM23.1435 22L22.9592 21.0171L22.9299 21.0226L22.901 21.0299L23.1435 22ZM22.8875 22.064V23.064H23.0106L23.13 23.0341L22.8875 22.064ZM22.8555 22.064V21.064H21.8555V22.064H22.8555ZM22.8555 22.896V23.896H23.8555V22.896H22.8555ZM21.7035 22.896H20.7035V23.896H21.7035V22.896ZM21.7035 22.064H22.7035V21.1812L21.8275 21.0717L21.7035 22.064ZM21.5755 22.048L21.4404 23.0389L21.4515 23.0403L21.5755 22.048ZM19.7995 21.328L19.1675 22.1031L19.1748 22.1089L19.7995 21.328ZM18.7115 19.008L19.711 18.9754L19.7109 18.9735L18.7115 19.008ZM18.8875 18.208L18.03 17.6935L18.0245 17.7026L18.0193 17.7119L18.8875 18.208ZM19.5275 17.728L19.2644 16.7632L19.2273 16.7733L19.1912 16.7863L19.5275 17.728ZM20.2155 17.712L20.4689 16.7446L20.458 16.7418L20.4471 16.7392L20.2155 17.712ZM21.0635 18.528L20.0992 18.7932L20.102 18.8027L21.0635 18.528ZM21.0635 19.216L20.0987 18.9529L20.0973 18.9583L21.0635 19.216ZM20.4875 19.936L20.9347 20.8304L20.9473 20.8241L20.9597 20.8175L20.4875 19.936ZM20.2795 20.016L19.9633 19.0673L19.9354 19.0766L19.9081 19.0875L20.2795 20.016ZM20.1995 20.048V21.048H20.3921L20.5709 20.9765L20.1995 20.048ZM20.4395 20.336L19.7324 21.0431V21.0431L20.4395 20.336ZM21.2235 20.784L20.8984 21.7297L20.9073 21.7327L21.2235 20.784ZM21.7035 17.472H22.7035V16.7037L21.9612 16.5058L21.7035 17.472ZM21.4635 17.408L21.7212 16.4418L21.6906 16.4336L21.6596 16.4274L21.4635 17.408ZM20.0395 16.768L19.4313 17.5618L19.4472 17.5739L19.4635 17.5855L20.0395 16.768ZM18.7115 14.352H17.7115V14.3846L17.7136 14.4171L18.7115 14.352ZM19.5755 11.84L20.2954 12.5342L20.305 12.5239L19.5755 11.84ZM21.5915 10.848L21.4501 9.85805L21.4356 9.86012L21.4212 9.86261L21.5915 10.848ZM21.7035 10.832L21.8449 11.8219L22.7035 11.6993V10.832H21.7035ZM21.6875 12V11H21.5474L21.4128 11.0385L21.6875 12ZM21.5755 12.032L21.818 13.0021L21.8342 12.9981L21.8502 12.9935L21.5755 12.032ZM20.5355 12.784L21.4179 13.2546L21.4267 13.2379L21.435 13.2209L20.5355 12.784ZM20.3915 13.296L19.3932 13.2373L19.3924 13.2505L19.392 13.2638L20.3915 13.296ZM20.7275 14.192L19.9768 14.8526L19.9978 14.8766L20.0204 14.8991L20.7275 14.192ZM21.6235 14.704L21.9949 13.7755L21.9319 13.7503L21.866 13.7339L21.6235 14.704ZM21.7035 14.736L21.3321 15.6645L22.7035 16.213V14.736H21.7035ZM23.0315 17.792L22.6254 18.7058L22.6525 18.7179L22.6804 18.7283L23.0315 17.792ZM22.8715 20.88V21.88H23.0491L23.2158 21.8189L22.8715 20.88ZM23.3515 20.704L23.6958 21.6429L23.7601 21.6193L23.8207 21.5871L23.3515 20.704ZM24.0555 19.92L23.121 19.564L23.1192 19.5689L24.0555 19.92ZM23.6555 18.176L22.9484 18.8831L22.9596 18.8943L22.9711 18.9051L23.6555 18.176ZM21.7035 10.416H22.7035V10H21.7035H20.7035V10.416H21.7035ZM21.7035 10V11H22.2795V10V9H21.7035V10ZM22.2795 10V11H22.8555V10V9H22.2795V10ZM22.8555 10H21.8555V10.416H22.8555H23.8555V10H22.8555ZM22.8555 10.416H21.8555V10.832H22.8555H23.8555V10.416H22.8555ZM22.8555 10.832L22.7725 11.8285L22.9645 11.8445L23.0475 10.848L23.1305 9.85145L22.9385 9.83545L22.8555 10.832ZM23.0475 10.848L22.9027 11.8375C23.6073 11.9406 24.084 12.1878 24.4131 12.5238L25.1275 11.824L25.8419 11.1242C25.147 10.4149 24.2371 10.0114 23.1923 9.85854L23.0475 10.848ZM25.1275 11.824L24.3989 12.5089C24.6994 12.8286 24.8631 13.2354 24.8478 13.8137L25.8475 13.84L26.8472 13.8663C26.8746 12.8232 26.5583 11.8861 25.8561 11.1391L25.1275 11.824ZM25.8475 13.84L24.8497 13.7735C24.8423 13.8853 24.8184 13.9278 24.8136 13.9356C24.8105 13.9406 24.8074 13.9446 24.8019 13.9497C24.796 13.9551 24.7828 13.9659 24.7567 13.9796L25.2235 14.864L25.6903 15.7484C26.4188 15.3639 26.7932 14.6882 26.8453 13.9065L25.8475 13.84ZM25.2235 14.864L24.7556 13.9802C24.7004 14.0094 24.6505 14.0317 24.4996 13.9603L24.0715 14.864L23.6434 15.7677C24.3032 16.0803 25.0212 16.1026 25.6914 15.7478L25.2235 14.864ZM24.0715 14.864L24.5571 13.9898C24.4974 13.9566 24.4822 13.9328 24.4778 13.9256C24.4722 13.9167 24.4516 13.8803 24.4451 13.7864L23.4475 13.856L22.4499 13.9256C22.5042 14.7029 22.8899 15.3515 23.5859 15.7382L24.0715 14.864ZM23.4475 13.856L24.4473 13.836C24.446 13.7712 24.4519 13.7288 24.4574 13.7041C24.4601 13.6919 24.4628 13.6839 24.4646 13.6792C24.4663 13.6746 24.4675 13.6725 24.4677 13.6721C24.4679 13.6719 24.4679 13.6718 24.4679 13.6719C24.4678 13.672 24.4678 13.672 24.4678 13.672C24.4678 13.672 24.468 13.6717 24.4685 13.6712C24.469 13.6707 24.4698 13.6699 24.4711 13.6687C24.4759 13.6644 24.4914 13.6516 24.5259 13.6348L24.0875 12.736L23.6491 11.8372C23.2746 12.0199 22.9503 12.2965 22.7313 12.6799C22.5156 13.0572 22.4396 13.4718 22.4477 13.876L23.4475 13.856ZM24.0875 12.736L24.6422 13.5681C24.5662 13.6187 24.4948 13.6449 24.442 13.6581L24.1995 12.688L23.957 11.7179C23.8188 11.7524 23.6728 11.8106 23.5328 11.9039L24.0875 12.736ZM24.1995 12.688L24.6467 13.5824L24.7427 13.5344L24.2955 12.64L23.8483 11.7456L23.7523 11.7936L24.1995 12.688ZM24.2955 12.64L24.9357 11.8718L24.8397 11.7918L24.1995 12.56L23.5593 13.3282L23.6553 13.4082L24.2955 12.64ZM24.1995 12.56L24.8809 11.8281C24.3944 11.3752 23.7808 11.1221 23.1126 11.0131L22.9515 12L22.7904 12.9869C23.1676 13.0485 23.3859 13.1688 23.5181 13.2919L24.1995 12.56ZM22.9515 12L23.1159 11.0136L23.0199 10.9976L22.8555 11.984L22.6911 12.9704L22.7871 12.9864L22.9515 12ZM22.8555 11.984H21.8555V13.488H22.8555H23.8555V11.984H22.8555ZM22.8555 13.488H21.8555V14.992H22.8555H23.8555V13.488H22.8555ZM22.8555 14.992L22.6766 15.9759L22.8526 16.0079L23.0315 15.024L23.2104 14.0401L23.0344 14.0081L22.8555 14.992ZM23.0315 15.024L22.8171 16.0007C23.4653 16.143 23.9449 16.4557 24.3071 16.946L25.1115 16.352L25.9159 15.758C25.2541 14.8617 24.347 14.289 23.2459 14.0473L23.0315 15.024ZM25.1115 16.352L24.3148 16.9564C24.8214 17.6242 24.9813 18.3812 24.7484 19.3295L25.7195 19.568L26.6906 19.8065C27.0551 18.3228 26.8096 16.9358 25.9082 15.7476L25.1115 16.352ZM25.7195 19.568L24.7506 19.3206C24.564 20.0513 24.1738 20.5262 23.5529 20.8293L23.9915 21.728L24.4301 22.6267C25.6012 22.0551 26.363 21.0901 26.6884 19.8154L25.7195 19.568ZM23.9915 21.728L23.5275 20.8422C23.4173 20.8999 23.2367 20.9651 22.9592 21.0171L23.1435 22L23.3278 22.9829C23.733 22.9069 24.1177 22.7908 24.4555 22.6138L23.9915 21.728ZM23.1435 22L22.901 21.0299L22.645 21.0939L22.8875 22.064L23.13 23.0341L23.386 22.9701L23.1435 22ZM22.8875 22.064V21.064H22.8555V22.064V23.064H22.8875V22.064ZM22.8555 22.064H21.8555V22.48H22.8555H23.8555V22.064H22.8555ZM22.8555 22.48H21.8555V22.896H22.8555H23.8555V22.48H22.8555ZM22.8555 22.896V21.896H22.2795V22.896V23.896H22.8555V22.896ZM22.2795 22.896V21.896H21.7035V22.896V23.896H22.2795V22.896ZM21.7035 22.896H22.7035V22.48H21.7035H20.7035V22.896H21.7035ZM21.7035 22.48H22.7035V22.064H21.7035H20.7035V22.48H21.7035ZM21.7035 22.064L21.8275 21.0717L21.6995 21.0557L21.5755 22.048L21.4515 23.0403L21.5795 23.0563L21.7035 22.064ZM21.5755 22.048L21.7106 21.0572C21.1574 20.9817 20.7422 20.8015 20.4242 20.5471L19.7995 21.328L19.1748 22.1089C19.8168 22.6225 20.5856 22.9223 21.4404 23.0388L21.5755 22.048ZM19.7995 21.328L20.4314 20.553C19.9856 20.1895 19.7346 19.6995 19.711 18.9754L18.7115 19.008L17.712 19.0406C17.7524 20.2792 18.2267 21.3358 19.1676 22.103L19.7995 21.328ZM18.7115 19.008L19.7109 18.9735C19.7054 18.8125 19.7368 18.7373 19.7557 18.7041L18.8875 18.208L18.0193 17.7119C17.7822 18.1267 17.6963 18.5849 17.7121 19.0425L18.7115 19.008ZM18.8875 18.208L19.745 18.7225C19.7378 18.7345 19.7328 18.736 19.7435 18.728C19.7564 18.7183 19.7917 18.6955 19.8638 18.6697L19.5275 17.728L19.1912 16.7863C18.7356 16.9489 18.3066 17.2325 18.03 17.6935L18.8875 18.208ZM19.5275 17.728L19.7906 18.6928C19.8731 18.6703 19.9321 18.6725 19.9839 18.6848L20.2155 17.712L20.4471 16.7392C20.0509 16.6449 19.6513 16.6577 19.2644 16.7632L19.5275 17.728ZM20.2155 17.712L19.9621 18.6794C20.0076 18.6913 20.0352 18.7035 20.0502 18.7115C20.0646 18.7192 20.0696 18.724 20.0701 18.7246C20.0705 18.725 20.0726 18.7268 20.0767 18.7339C20.081 18.7415 20.09 18.7595 20.0993 18.7932L21.0635 18.528L22.0277 18.2628C21.8104 17.4728 21.2424 16.9472 20.4689 16.7446L20.2155 17.712ZM21.0635 18.528L20.102 18.8027C20.1135 18.8432 20.1169 18.8863 20.0987 18.9529L21.0635 19.216L22.0283 19.4791C22.1381 19.0764 22.1415 18.6608 22.025 18.2533L21.0635 18.528ZM21.0635 19.216L20.0973 18.9583C20.0875 18.995 20.0775 19.0077 20.0746 19.0113C20.0714 19.0154 20.0577 19.0318 20.0153 19.0545L20.4875 19.936L20.9597 20.8175C21.4959 20.5302 21.8713 20.0679 22.0297 19.4737L21.0635 19.216ZM20.4875 19.936L20.0403 19.0416C20.046 19.0387 20.0503 19.0367 20.0527 19.0356C20.054 19.035 20.055 19.0345 20.0556 19.0343C20.0562 19.034 20.0566 19.0339 20.0566 19.0339C20.0566 19.0338 20.0563 19.034 20.0558 19.0342C20.0553 19.0344 20.0545 19.0347 20.0535 19.0351C20.0514 19.036 20.0484 19.0372 20.0445 19.0387C20.028 19.045 20.0017 19.0545 19.9633 19.0673L20.2795 20.016L20.5957 20.9647C20.6984 20.9304 20.8247 20.8854 20.9347 20.8304L20.4875 19.936ZM20.2795 20.016L19.9081 19.0875L19.8281 19.1195L20.1995 20.048L20.5709 20.9765L20.6509 20.9445L20.2795 20.016ZM20.1995 20.048V19.048C20.0893 19.048 19.8667 19.066 19.6401 19.2171C19.3792 19.391 19.2458 19.6515 19.2064 19.8881C19.1727 20.0899 19.209 20.2509 19.2298 20.3258C19.2533 20.4103 19.2831 20.4753 19.3021 20.5132C19.3648 20.6387 19.4456 20.7342 19.4673 20.7602C19.5383 20.8454 19.6338 20.9445 19.7324 21.0431L20.4395 20.336L21.1466 19.6289C21.1031 19.5854 21.0691 19.5505 21.0435 19.5234C21.0308 19.51 21.0212 19.4994 21.014 19.4915C21.0067 19.4834 21.0037 19.4797 21.0037 19.4798C21.0039 19.48 21.0054 19.4819 21.0081 19.4853C21.0107 19.4886 21.0154 19.4946 21.0214 19.503C21.0289 19.5134 21.0593 19.5555 21.0909 19.6188C21.1069 19.6507 21.1346 19.7105 21.1568 19.7905C21.1764 19.8608 21.2123 20.0181 21.1791 20.2169C21.1402 20.4505 21.0082 20.7087 20.7495 20.8812C20.5252 21.0307 20.3057 21.048 20.1995 21.048V20.048ZM20.4395 20.336L19.7324 21.0431C20.0559 21.3666 20.4681 21.5818 20.8984 21.7297L21.2235 20.784L21.5486 19.8383C21.2962 19.7516 21.1858 19.6681 21.1466 19.6289L20.4395 20.336ZM21.2235 20.784L20.9073 21.7327C21.0322 21.7743 21.1521 21.8109 21.261 21.8381C21.3497 21.8603 21.505 21.896 21.6715 21.896V20.896V19.896C21.7025 19.896 21.7261 19.8979 21.7395 19.8992C21.7535 19.9006 21.7627 19.9021 21.7659 19.9026C21.7715 19.9035 21.7659 19.9028 21.746 19.8979C21.7056 19.8877 21.6388 19.8683 21.5397 19.8353L21.2235 20.784ZM21.6715 20.896V21.896C22.2625 21.896 22.5202 21.4276 22.5387 21.3957C22.6023 21.2859 22.6299 21.1891 22.6382 21.1593C22.6594 21.084 22.6678 21.0199 22.6705 20.999C22.6779 20.9431 22.6816 20.8863 22.6839 20.845C22.689 20.7543 22.6926 20.6321 22.6953 20.4867C22.7008 20.1917 22.7035 19.7561 22.7035 19.184H21.7035H20.7035C20.7035 19.7533 20.7008 20.1737 20.6957 20.4493C20.6931 20.5892 20.69 20.681 20.6871 20.733C20.6854 20.763 20.6848 20.7597 20.6875 20.7395C20.6879 20.7364 20.6939 20.6857 20.7125 20.6193C20.7196 20.5939 20.7459 20.5005 20.8082 20.393C20.8396 20.3389 20.9067 20.234 21.0252 20.1333C21.1519 20.0258 21.3726 19.896 21.6715 19.896V20.896ZM21.7035 19.184H22.7035V17.472H21.7035H20.7035V19.184H21.7035ZM21.7035 17.472L21.9612 16.5058L21.7212 16.4418L21.4635 17.408L21.2058 18.3742L21.4458 18.4382L21.7035 17.472ZM21.4635 17.408L21.6596 16.4274C21.3378 16.363 20.9904 16.2147 20.6155 15.9505L20.0395 16.768L19.4635 17.5855C20.0273 17.9827 20.6292 18.261 21.2674 18.3886L21.4635 17.408ZM20.0395 16.768L20.6477 15.9742C20.0417 15.5099 19.7535 14.9639 19.7094 14.2869L18.7115 14.352L17.7136 14.4171C17.7975 15.7028 18.3947 16.7675 19.4313 17.5618L20.0395 16.768ZM18.7115 14.352H19.7115C19.7115 14.3519 19.7115 14.3517 19.7115 14.3516C19.7115 14.3514 19.7115 14.3513 19.7115 14.3511C19.7115 14.351 19.7115 14.3508 19.7115 14.3507C19.7115 14.3505 19.7115 14.3504 19.7115 14.3503C19.7115 14.3501 19.7115 14.35 19.7115 14.3498C19.7115 14.3497 19.7115 14.3495 19.7115 14.3494C19.7115 14.3492 19.7115 14.3491 19.7115 14.3489C19.7115 14.3488 19.7115 14.3486 19.7115 14.3485C19.7115 14.3484 19.7115 14.3482 19.7115 14.3481C19.7115 14.3479 19.7115 14.3478 19.7115 14.3476C19.7115 14.3475 19.7115 14.3473 19.7115 14.3472C19.7115 14.347 19.7115 14.3469 19.7115 14.3468C19.7115 14.3466 19.7115 14.3465 19.7115 14.3463C19.7115 14.3462 19.7115 14.346 19.7115 14.3459C19.7115 14.3457 19.7115 14.3456 19.7115 14.3455C19.7115 14.3453 19.7115 14.3452 19.7115 14.345C19.7115 14.3449 19.7115 14.3447 19.7115 14.3446C19.7115 14.3444 19.7115 14.3443 19.7115 14.3441C19.7115 14.344 19.7115 14.3439 19.7115 14.3437C19.7115 14.3436 19.7115 14.3434 19.7115 14.3433C19.7115 14.3431 19.7115 14.343 19.7115 14.3428C19.7115 14.3427 19.7115 14.3425 19.7115 14.3424C19.7115 14.3423 19.7115 14.3421 19.7115 14.342C19.7115 14.3418 19.7115 14.3417 19.7115 14.3415C19.7115 14.3414 19.7115 14.3412 19.7115 14.3411C19.7115 14.341 19.7115 14.3408 19.7115 14.3407C19.7115 14.3405 19.7115 14.3404 19.7115 14.3402C19.7115 14.3401 19.7115 14.3399 19.7115 14.3398C19.7115 14.3397 19.7115 14.3395 19.7115 14.3394C19.7115 14.3392 19.7115 14.3391 19.7115 14.3389C19.7115 14.3388 19.7115 14.3386 19.7115 14.3385C19.7115 14.3384 19.7115 14.3382 19.7115 14.3381C19.7115 14.3379 19.7115 14.3378 19.7115 14.3376C19.7115 14.3375 19.7115 14.3373 19.7115 14.3372C19.7115 14.3371 19.7115 14.3369 19.7115 14.3368C19.7115 14.3366 19.7115 14.3365 19.7115 14.3363C19.7115 14.3362 19.7115 14.336 19.7115 14.3359C19.7115 14.3358 19.7115 14.3356 19.7115 14.3355C19.7115 14.3353 19.7115 14.3352 19.7115 14.335C19.7115 14.3349 19.7115 14.3347 19.7115 14.3346C19.7115 14.3345 19.7115 14.3343 19.7115 14.3342C19.7115 14.334 19.7115 14.3339 19.7115 14.3337C19.7115 14.3336 19.7115 14.3334 19.7115 14.3333C19.7115 14.3332 19.7115 14.333 19.7115 14.3329C19.7115 14.3327 19.7115 14.3326 19.7115 14.3324C19.7115 14.3323 19.7115 14.3321 19.7115 14.332C19.7115 14.3319 19.7115 14.3317 19.7115 14.3316C19.7115 14.3314 19.7115 14.3313 19.7115 14.3311C19.7115 14.331 19.7115 14.3309 19.7115 14.3307C19.7115 14.3306 19.7115 14.3304 19.7115 14.3303C19.7115 14.3301 19.7115 14.33 19.7115 14.3298C19.7115 14.3297 19.7115 14.3296 19.7115 14.3294C19.7115 14.3293 19.7115 14.3291 19.7115 14.329C19.7115 14.3288 19.7115 14.3287 19.7115 14.3286C19.7115 14.3284 19.7115 14.3283 19.7115 14.3281C19.7115 14.328 19.7115 14.3278 19.7115 14.3277C19.7115 14.3275 19.7115 14.3274 19.7115 14.3273C19.7115 14.3271 19.7115 14.327 19.7115 14.3268C19.7115 14.3267 19.7115 14.3265 19.7115 14.3264C19.7115 14.3263 19.7115 14.3261 19.7115 14.326C19.7115 14.3258 19.7115 14.3257 19.7115 14.3255C19.7115 14.3254 19.7115 14.3253 19.7115 14.3251C19.7115 14.325 19.7115 14.3248 19.7115 14.3247C19.7115 14.3245 19.7115 14.3244 19.7115 14.3242C19.7115 14.3241 19.7115 14.324 19.7115 14.3238C19.7115 14.3237 19.7115 14.3235 19.7115 14.3234C19.7115 14.3232 19.7115 14.3231 19.7115 14.323C19.7115 14.3228 19.7115 14.3227 19.7115 14.3225C19.7115 14.3224 19.7115 14.3222 19.7115 14.3221C19.7115 14.322 19.7115 14.3218 19.7115 14.3217C19.7115 14.3215 19.7115 14.3214 19.7115 14.3212C19.7115 14.3211 19.7115 14.321 19.7115 14.3208C19.7115 14.3207 19.7115 14.3205 19.7115 14.3204C19.7115 14.3202 19.7115 14.3201 19.7115 14.32C19.7115 14.3198 19.7115 14.3197 19.7115 14.3195C19.7115 14.3194 19.7115 14.3192 19.7115 14.3191C19.7115 14.319 19.7115 14.3188 19.7115 14.3187C19.7115 14.3185 19.7115 14.3184 19.7115 14.3182C19.7115 14.3181 19.7115 14.318 19.7115 14.3178C19.7115 14.3177 19.7115 14.3175 19.7115 14.3174C19.7115 14.3172 19.7115 14.3171 19.7115 14.317C19.7115 14.3168 19.7115 14.3167 19.7115 14.3165C19.7115 14.3164 19.7115 14.3163 19.7115 14.3161C19.7115 14.316 19.7115 14.3158 19.7115 14.3157C19.7115 14.3155 19.7115 14.3154 19.7115 14.3153C19.7115 14.3151 19.7115 14.315 19.7115 14.3148C19.7115 14.3147 19.7115 14.3145 19.7115 14.3144C19.7115 14.3143 19.7115 14.3141 19.7115 14.314C19.7115 14.3138 19.7115 14.3137 19.7115 14.3135C19.7115 14.3134 19.7115 14.3133 19.7115 14.3131C19.7115 14.313 19.7115 14.3128 19.7115 14.3127C19.7115 14.3126 19.7115 14.3124 19.7115 14.3123C19.7115 14.3121 19.7115 14.312 19.7115 14.3118C19.7115 14.3117 19.7115 14.3116 19.7115 14.3114C19.7115 14.3113 19.7115 14.3111 19.7115 14.311C19.7115 14.3108 19.7115 14.3107 19.7115 14.3106C19.7115 14.3104 19.7115 14.3103 19.7115 14.3101C19.7115 14.31 19.7115 14.3099 19.7115 14.3097C19.7115 14.3096 19.7115 14.3094 19.7115 14.3093C19.7115 14.3091 19.7115 14.309 19.7115 14.3089C19.7115 14.3087 19.7115 14.3086 19.7115 14.3084C19.7115 14.3083 19.7115 14.3082 19.7115 14.308C19.7115 14.3079 19.7115 14.3077 19.7115 14.3076C19.7115 14.3074 19.7115 14.3073 19.7115 14.3072C19.7115 14.307 19.7115 14.3069 19.7115 14.3067C19.7115 14.3066 19.7115 14.3065 19.7115 14.3063C19.7115 14.3062 19.7115 14.306 19.7115 14.3059C19.7115 14.3057 19.7115 14.3056 19.7115 14.3055C19.7115 14.3053 19.7115 14.3052 19.7115 14.305C19.7115 14.3049 19.7115 14.3048 19.7115 14.3046C19.7115 14.3045 19.7115 14.3043 19.7115 14.3042C19.7115 14.304 19.7115 14.3039 19.7115 14.3038C19.7115 14.3036 19.7115 14.3035 19.7115 14.3033C19.7115 14.3032 19.7115 14.3031 19.7115 14.3029C19.7115 14.3028 19.7115 14.3026 19.7115 14.3025C19.7115 14.3024 19.7115 14.3022 19.7115 14.3021C19.7115 14.3019 19.7115 14.3018 19.7115 14.3016C19.7115 14.3015 19.7115 14.3014 19.7115 14.3012C19.7115 14.3011 19.7115 14.3009 19.7115 14.3008C19.7115 14.3007 19.7115 14.3005 19.7115 14.3004C19.7115 14.3002 19.7115 14.3001 19.7115 14.3C19.7115 14.2998 19.7115 14.2997 19.7115 14.2995C19.7115 14.2994 19.7115 14.2993 19.7115 14.2991C19.7115 14.299 19.7115 14.2988 19.7115 14.2987C19.7115 14.2985 19.7115 14.2984 19.7115 14.2983C19.7115 14.2981 19.7115 14.298 19.7115 14.2978C19.7115 14.2977 19.7115 14.2976 19.7115 14.2974C19.7115 14.2973 19.7115 14.2971 19.7115 14.297C19.7115 14.2969 19.7115 14.2967 19.7115 14.2966C19.7115 14.2964 19.7115 14.2963 19.7115 14.2962C19.7115 14.296 19.7115 14.2959 19.7115 14.2957C19.7115 14.2956 19.7115 14.2955 19.7115 14.2953C19.7115 14.2952 19.7115 14.295 19.7115 14.2949C19.7115 14.2948 19.7115 14.2946 19.7115 14.2945C19.7115 14.2943 19.7115 14.2942 19.7115 14.294C19.7115 14.2939 19.7115 14.2938 19.7115 14.2936C19.7115 14.2935 19.7115 14.2933 19.7115 14.2932C19.7115 14.2931 19.7115 14.2929 19.7115 14.2928C19.7115 14.2926 19.7115 14.2925 19.7115 14.2924C19.7115 14.2922 19.7115 14.2921 19.7115 14.2919C19.7115 14.2918 19.7115 14.2917 19.7115 14.2915C19.7115 14.2914 19.7115 14.2912 19.7115 14.2911C19.7115 14.291 19.7115 14.2908 19.7115 14.2907C19.7115 14.2905 19.7115 14.2904 19.7115 14.2903C19.7115 14.2901 19.7115 14.29 19.7115 14.2898C19.7115 14.2897 19.7115 14.2896 19.7115 14.2894C19.7115 14.2893 19.7115 14.2891 19.7115 14.289C19.7115 14.2889 19.7115 14.2887 19.7115 14.2886C19.7115 14.2884 19.7115 14.2883 19.7115 14.2882C19.7115 14.288 19.7115 14.2879 19.7115 14.2877C19.7115 14.2876 19.7115 14.2875 19.7115 14.2873C19.7115 14.2872 19.7115 14.287 19.7115 14.2869C19.7115 14.2868 19.7115 14.2866 19.7115 14.2865C19.7115 14.2864 19.7115 14.2862 19.7115 14.2861C19.7115 14.2859 19.7115 14.2858 19.7115 14.2857C19.7115 14.2855 19.7115 14.2854 19.7115 14.2852C19.7115 14.2851 19.7115 14.285 19.7115 14.2848C19.7115 14.2847 19.7115 14.2845 19.7115 14.2844C19.7115 14.2843 19.7115 14.2841 19.7115 14.284C19.7115 14.2838 19.7115 14.2837 19.7115 14.2836C19.7115 14.2834 19.7115 14.2833 19.7115 14.2831C19.7115 14.283 19.7115 14.2829 19.7115 14.2827C19.7115 14.2826 19.7115 14.2824 19.7115 14.2823C19.7115 14.2822 19.7115 14.282 19.7115 14.2819C19.7115 14.2818 19.7115 14.2816 19.7115 14.2815C19.7115 14.2813 19.7115 14.2812 19.7115 14.2811C19.7115 14.2809 19.7115 14.2808 19.7115 14.2806C19.7115 14.2805 19.7115 14.2804 19.7115 14.2802C19.7115 14.2801 19.7115 14.2799 19.7115 14.2798C19.7115 14.2797 19.7115 14.2795 19.7115 14.2794C19.7115 14.2792 19.7115 14.2791 19.7115 14.279C19.7115 14.2788 19.7115 14.2787 19.7115 14.2786C19.7115 14.2784 19.7115 14.2783 19.7115 14.2781C19.7115 14.278 19.7115 14.2779 19.7115 14.2777C19.7115 14.2776 19.7115 14.2774 19.7115 14.2773C19.7115 14.2772 19.7115 14.277 19.7115 14.2769C19.7115 14.2768 19.7115 14.2766 19.7115 14.2765C19.7115 14.2763 19.7115 14.2762 19.7115 14.2761C19.7115 14.2759 19.7115 14.2758 19.7115 14.2756C19.7115 14.2755 19.7115 14.2754 19.7115 14.2752C19.7115 14.2751 19.7115 14.275 19.7115 14.2748C19.7115 14.2747 19.7115 14.2745 19.7115 14.2744C19.7115 14.2743 19.7115 14.2741 19.7115 14.274C19.7115 14.2738 19.7115 14.2737 19.7115 14.2736C19.7115 14.2734 19.7115 14.2733 19.7115 14.2732C19.7115 14.273 19.7115 14.2729 19.7115 14.2727C19.7115 14.2726 19.7115 14.2725 19.7115 14.2723C19.7115 14.2722 19.7115 14.272 19.7115 14.2719C19.7115 14.2718 19.7115 14.2716 19.7115 14.2715C19.7115 14.2714 19.7115 14.2712 19.7115 14.2711C19.7115 14.2709 19.7115 14.2708 19.7115 14.2707C19.7115 14.2705 19.7115 14.2704 19.7115 14.2702C19.7115 14.2701 19.7115 14.27 19.7115 14.2698C19.7115 14.2697 19.7115 14.2696 19.7115 14.2694C19.7115 14.2693 19.7115 14.2691 19.7115 14.269C19.7115 14.2689 19.7115 14.2687 19.7115 14.2686C19.7115 14.2685 19.7115 14.2683 19.7115 14.2682C19.7115 14.268 19.7115 14.2679 19.7115 14.2678C19.7115 14.2676 19.7115 14.2675 19.7115 14.2674C19.7115 14.2672 19.7115 14.2671 19.7115 14.2669C19.7115 14.2668 19.7115 14.2667 19.7115 14.2665C19.7115 14.2664 19.7115 14.2663 19.7115 14.2661C19.7115 14.266 19.7115 14.2658 19.7115 14.2657C19.7115 14.2656 19.7115 14.2654 19.7115 14.2653C19.7115 14.2652 19.7115 14.265 19.7115 14.2649C19.7115 14.2647 19.7115 14.2646 19.7115 14.2645C19.7115 14.2643 19.7115 14.2642 19.7115 14.2641C19.7115 14.2639 19.7115 14.2638 19.7115 14.2636C19.7115 14.2635 19.7115 14.2634 19.7115 14.2632C19.7115 14.2631 19.7115 14.263 19.7115 14.2628C19.7115 14.2627 19.7115 14.2625 19.7115 14.2624C19.7115 14.2623 19.7115 14.2621 19.7115 14.262C19.7115 14.2619 19.7115 14.2617 19.7115 14.2616C19.7115 14.2614 19.7115 14.2613 19.7115 14.2612C19.7115 14.261 19.7115 14.2609 19.7115 14.2608C19.7115 14.2606 19.7115 14.2605 19.7115 14.2603C19.7115 14.2602 19.7115 14.2601 19.7115 14.2599C19.7115 14.2598 19.7115 14.2597 19.7115 14.2595C19.7115 14.2594 19.7115 14.2593 19.7115 14.2591C19.7115 14.259 19.7115 14.2588 19.7115 14.2587C19.7115 14.2586 19.7115 14.2584 19.7115 14.2583C19.7115 14.2582 19.7115 14.258 19.7115 14.2579C19.7115 14.2577 19.7115 14.2576 19.7115 14.2575C19.7115 14.2573 19.7115 14.2572 19.7115 14.2571C19.7115 14.2569 19.7115 14.2568 19.7115 14.2567C19.7115 14.2565 19.7115 14.2564 19.7115 14.2562C19.7115 14.2561 19.7115 14.256 19.7115 14.2558C19.7115 14.2557 19.7115 14.2556 19.7115 14.2554C19.7115 14.2553 19.7115 14.2551 19.7115 14.255C19.7115 14.2549 19.7115 14.2547 19.7115 14.2546C19.7115 14.2545 19.7115 14.2543 19.7115 14.2542C19.7115 14.2541 19.7115 14.2539 19.7115 14.2538C19.7115 14.2536 19.7115 14.2535 19.7115 14.2534C19.7115 14.2532 19.7115 14.2531 19.7115 14.253C19.7115 14.2528 19.7115 14.2527 19.7115 14.2526C19.7115 14.2524 19.7115 14.2523 19.7115 14.2521C19.7115 14.252 19.7115 14.2519 19.7115 14.2517C19.7115 14.2516 19.7115 14.2515 19.7115 14.2513C19.7115 14.2512 19.7115 14.2511 19.7115 14.2509C19.7115 14.2508 19.7115 14.2507 19.7115 14.2505C19.7115 14.2504 19.7115 14.2502 19.7115 14.2501C19.7115 14.25 19.7115 14.2498 19.7115 14.2497C19.7115 14.2496 19.7115 14.2494 19.7115 14.2493C19.7115 14.2492 19.7115 14.249 19.7115 14.2489C19.7115 14.2487 19.7115 14.2486 19.7115 14.2485C19.7115 14.2483 19.7115 14.2482 19.7115 14.2481C19.7115 14.2479 19.7115 14.2478 19.7115 14.2477C19.7115 14.2475 19.7115 14.2474 19.7115 14.2473C19.7115 14.2471 19.7115 14.247 19.7115 14.2468C19.7115 14.2467 19.7115 14.2466 19.7115 14.2464C19.7115 14.2463 19.7115 14.2462 19.7115 14.246C19.7115 14.2459 19.7115 14.2458 19.7115 14.2456C19.7115 14.2455 19.7115 14.2454 19.7115 14.2452C19.7115 14.2451 19.7115 14.2449 19.7115 14.2448C19.7115 14.2447 19.7115 14.2445 19.7115 14.2444C19.7115 14.2443 19.7115 14.2441 19.7115 14.244C19.7115 14.2439 19.7115 14.2437 19.7115 14.2436C19.7115 14.2435 19.7115 14.2433 19.7115 14.2432C19.7115 14.2431 19.7115 14.2429 19.7115 14.2428C19.7115 14.2426 19.7115 14.2425 19.7115 14.2424C19.7115 14.2422 19.7115 14.2421 19.7115 14.242C19.7115 14.2418 19.7115 14.2417 19.7115 14.2416C19.7115 14.2414 19.7115 14.2413 19.7115 14.2412C19.7115 14.241 19.7115 14.2409 19.7115 14.2408C19.7115 14.2406 19.7115 14.2405 19.7115 14.2403C19.7115 14.2402 19.7115 14.2401 19.7115 14.2399C19.7115 14.2398 19.7115 14.2397 19.7115 14.2395C19.7115 14.2394 19.7115 14.2393 19.7115 14.2391C19.7115 14.239 19.7115 14.2389 19.7115 14.2387C19.7115 14.2386 19.7115 14.2385 19.7115 14.2383C19.7115 14.2382 19.7115 14.2381 19.7115 14.2379C19.7115 14.2378 19.7115 14.2376 19.7115 14.2375C19.7115 14.2374 19.7115 14.2372 19.7115 14.2371C19.7115 14.237 19.7115 14.2368 19.7115 14.2367C19.7115 14.2366 19.7115 14.2364 19.7115 14.2363C19.7115 14.2362 19.7115 14.236 19.7115 14.2359C19.7115 14.2358 19.7115 14.2356 19.7115 14.2355C19.7115 14.2354 19.7115 14.2352 19.7115 14.2351C19.7115 14.235 19.7115 14.2348 19.7115 14.2347C19.7115 14.2346 19.7115 14.2344 19.7115 14.2343C19.7115 14.2342 19.7115 14.234 19.7115 14.2339C19.7115 14.2337 19.7115 14.2336 19.7115 14.2335C19.7115 14.2333 19.7115 14.2332 19.7115 14.2331C19.7115 14.2329 19.7115 14.2328 19.7115 14.2327C19.7115 14.2325 19.7115 14.2324 19.7115 14.2323C19.7115 14.2321 19.7115 14.232 19.7115 14.2319C19.7115 14.2317 19.7115 14.2316 19.7115 14.2315C19.7115 14.2313 19.7115 14.2312 19.7115 14.2311C19.7115 14.2309 19.7115 14.2308 19.7115 14.2307C19.7115 14.2305 19.7115 14.2304 19.7115 14.2303C19.7115 14.2301 19.7115 14.23 19.7115 14.2299C19.7115 14.2297 19.7115 14.2296 19.7115 14.2295C19.7115 14.2293 19.7115 14.2292 19.7115 14.2291C19.7115 14.2289 19.7115 14.2288 19.7115 14.2287C19.7115 14.2285 19.7115 14.2284 19.7115 14.2282C19.7115 14.2281 19.7115 14.228 19.7115 14.2278C19.7115 14.2277 19.7115 14.2276 19.7115 14.2274C19.7115 14.2273 19.7115 14.2272 19.7115 14.227C19.7115 14.2269 19.7115 14.2268 19.7115 14.2266C19.7115 14.2265 19.7115 14.2264 19.7115 14.2262C19.7115 14.2261 19.7115 14.226 19.7115 14.2258C19.7115 14.2257 19.7115 14.2256 19.7115 14.2254C19.7115 14.2253 19.7115 14.2252 19.7115 14.225C19.7115 14.2249 19.7115 14.2248 19.7115 14.2246C19.7115 14.2245 19.7115 14.2244 19.7115 14.2242C19.7115 14.2241 19.7115 14.224 19.7115 14.2238C19.7115 14.2237 19.7115 14.2236 19.7115 14.2234C19.7115 14.2233 19.7115 14.2232 19.7115 14.223C19.7115 14.2229 19.7115 14.2228 19.7115 14.2226C19.7115 14.2225 19.7115 14.2224 19.7115 14.2222C19.7115 14.2221 19.7115 14.222 19.7115 14.2218C19.7115 14.2217 19.7115 14.2216 19.7115 14.2214C19.7115 14.2213 19.7115 14.2212 19.7115 14.221C19.7115 14.2209 19.7115 14.2208 19.7115 14.2206C19.7115 14.2205 19.7115 14.2204 19.7115 14.2202C19.7115 14.2201 19.7115 14.22 19.7115 14.2198C19.7115 14.2197 19.7115 14.2196 19.7115 14.2194C19.7115 14.2193 19.7115 14.2192 19.7115 14.219C19.7115 14.2189 19.7115 14.2188 19.7115 14.2186C19.7115 14.2185 19.7115 14.2184 19.7115 14.2182C19.7115 14.2181 19.7115 14.218 19.7115 14.2179C19.7115 14.2177 19.7115 14.2176 19.7115 14.2175C19.7115 14.2173 19.7115 14.2172 19.7115 14.2171C19.7115 14.2169 19.7115 14.2168 19.7115 14.2167C19.7115 14.2165 19.7115 14.2164 19.7115 14.2163C19.7115 14.2161 19.7115 14.216 19.7115 14.2159C19.7115 14.2157 19.7115 14.2156 19.7115 14.2155C19.7115 14.2153 19.7115 14.2152 19.7115 14.2151C19.7115 14.2149 19.7115 14.2148 19.7115 14.2147C19.7115 14.2145 19.7115 14.2144 19.7115 14.2143C19.7115 14.2141 19.7115 14.214 19.7115 14.2139C19.7115 14.2137 19.7115 14.2136 19.7115 14.2135C19.7115 14.2133 19.7115 14.2132 19.7115 14.2131C19.7115 14.2129 19.7115 14.2128 19.7115 14.2127C19.7115 14.2126 19.7115 14.2124 19.7115 14.2123C19.7115 14.2122 19.7115 14.212 19.7115 14.2119C19.7115 14.2118 19.7115 14.2116 19.7115 14.2115C19.7115 14.2114 19.7115 14.2112 19.7115 14.2111C19.7115 14.211 19.7115 14.2108 19.7115 14.2107C19.7115 14.2106 19.7115 14.2104 19.7115 14.2103C19.7115 14.2102 19.7115 14.21 19.7115 14.2099C19.7115 14.2098 19.7115 14.2096 19.7115 14.2095C19.7115 14.2094 19.7115 14.2092 19.7115 14.2091C19.7115 14.209 19.7115 14.2089 19.7115 14.2087C19.7115 14.2086 19.7115 14.2085 19.7115 14.2083C19.7115 14.2082 19.7115 14.2081 19.7115 14.2079C19.7115 14.2078 19.7115 14.2077 19.7115 14.2075C19.7115 14.2074 19.7115 14.2073 19.7115 14.2071C19.7115 14.207 19.7115 14.2069 19.7115 14.2067C19.7115 14.2066 19.7115 14.2065 19.7115 14.2064C19.7115 14.2062 19.7115 14.2061 19.7115 14.206C19.7115 14.2058 19.7115 14.2057 19.7115 14.2056C19.7115 14.2054 19.7115 14.2053 19.7115 14.2052C19.7115 14.205 19.7115 14.2049 19.7115 14.2048C19.7115 14.2046 19.7115 14.2045 19.7115 14.2044C19.7115 14.2042 19.7115 14.2041 19.7115 14.204C19.7115 14.2039 19.7115 14.2037 19.7115 14.2036C19.7115 14.2035 19.7115 14.2033 19.7115 14.2032C19.7115 14.2031 19.7115 14.2029 19.7115 14.2028C19.7115 14.2027 19.7115 14.2025 19.7115 14.2024C19.7115 14.2023 19.7115 14.2021 19.7115 14.202C19.7115 14.2019 19.7115 14.2018 19.7115 14.2016C19.7115 14.2015 19.7115 14.2014 19.7115 14.2012C19.7115 14.2011 19.7115 14.201 19.7115 14.2008C19.7115 14.2007 19.7115 14.2006 19.7115 14.2004C19.7115 14.2003 19.7115 14.2002 19.7115 14.2001C19.7115 14.1999 19.7115 14.1998 19.7115 14.1997C19.7115 14.1995 19.7115 14.1994 19.7115 14.1993C19.7115 14.1991 19.7115 14.199 19.7115 14.1989C19.7115 14.1987 19.7115 14.1986 19.7115 14.1985C19.7115 14.1983 19.7115 14.1982 19.7115 14.1981C19.7115 14.198 19.7115 14.1978 19.7115 14.1977C19.7115 14.1976 19.7115 14.1974 19.7115 14.1973C19.7115 14.1972 19.7115 14.197 19.7115 14.1969C19.7115 14.1968 19.7115 14.1967 19.7115 14.1965C19.7115 14.1964 19.7115 14.1963 19.7115 14.1961C19.7115 14.196 19.7115 14.1959 19.7115 14.1957C19.7115 14.1956 19.7115 14.1955 19.7115 14.1953C19.7115 14.1952 19.7115 14.1951 19.7115 14.195C19.7115 14.1948 19.7115 14.1947 19.7115 14.1946C19.7115 14.1944 19.7115 14.1943 19.7115 14.1942C19.7115 14.194 19.7115 14.1939 19.7115 14.1938C19.7115 14.1937 19.7115 14.1935 19.7115 14.1934C19.7115 14.1933 19.7115 14.1931 19.7115 14.193C19.7115 14.1929 19.7115 14.1927 19.7115 14.1926C19.7115 14.1925 19.7115 14.1923 19.7115 14.1922C19.7115 14.1921 19.7115 14.192 19.7115 14.1918C19.7115 14.1917 19.7115 14.1916 19.7115 14.1914C19.7115 14.1913 19.7115 14.1912 19.7115 14.191C19.7115 14.1909 19.7115 14.1908 19.7115 14.1907C19.7115 14.1905 19.7115 14.1904 19.7115 14.1903C19.7115 14.1901 19.7115 14.19 19.7115 14.1899C19.7115 14.1897 19.7115 14.1896 19.7115 14.1895C19.7115 14.1894 19.7115 14.1892 19.7115 14.1891C19.7115 14.189 19.7115 14.1888 19.7115 14.1887C19.7115 14.1886 19.7115 14.1885 19.7115 14.1883C19.7115 14.1882 19.7115 14.1881 19.7115 14.1879C19.7115 14.1878 19.7115 14.1877 19.7115 14.1875C19.7115 14.1874 19.7115 14.1873 19.7115 14.1872C19.7115 14.187 19.7115 14.1869 19.7115 14.1868C19.7115 14.1866 19.7115 14.1865 19.7115 14.1864C19.7115 14.1862 19.7115 14.1861 19.7115 14.186C19.7115 14.1859 19.7115 14.1857 19.7115 14.1856C19.7115 14.1855 19.7115 14.1853 19.7115 14.1852C19.7115 14.1851 19.7115 14.185 19.7115 14.1848C19.7115 14.1847 19.7115 14.1846 19.7115 14.1844C19.7115 14.1843 19.7115 14.1842 19.7115 14.184C19.7115 14.1839 19.7115 14.1838 19.7115 14.1837C19.7115 14.1835 19.7115 14.1834 19.7115 14.1833C19.7115 14.1831 19.7115 14.183 19.7115 14.1829C19.7115 14.1828 19.7115 14.1826 19.7115 14.1825C19.7115 14.1824 19.7115 14.1822 19.7115 14.1821C19.7115 14.182 19.7115 14.1819 19.7115 14.1817C19.7115 14.1816 19.7115 14.1815 19.7115 14.1813C19.7115 14.1812 19.7115 14.1811 19.7115 14.1809C19.7115 14.1808 19.7115 14.1807 19.7115 14.1806C19.7115 14.1804 19.7115 14.1803 19.7115 14.1802C19.7115 14.18 19.7115 14.1799 19.7115 14.1798C19.7115 14.1797 19.7115 14.1795 19.7115 14.1794C19.7115 14.1793 19.7115 14.1791 19.7115 14.179C19.7115 14.1789 19.7115 14.1788 19.7115 14.1786C19.7115 14.1785 19.7115 14.1784 19.7115 14.1782C19.7115 14.1781 19.7115 14.178 19.7115 14.1779C19.7115 14.1777 19.7115 14.1776 19.7115 14.1775C19.7115 14.1773 19.7115 14.1772 19.7115 14.1771C19.7115 14.177 19.7115 14.1768 19.7115 14.1767C19.7115 14.1766 19.7115 14.1764 19.7115 14.1763C19.7115 14.1762 19.7115 14.1761 19.7115 14.1759C19.7115 14.1758 19.7115 14.1757 19.7115 14.1755C19.7115 14.1754 19.7115 14.1753 19.7115 14.1752C19.7115 14.175 19.7115 14.1749 19.7115 14.1748C19.7115 14.1746 19.7115 14.1745 19.7115 14.1744C19.7115 14.1743 19.7115 14.1741 19.7115 14.174C19.7115 14.1739 19.7115 14.1737 19.7115 14.1736C19.7115 14.1735 19.7115 14.1734 19.7115 14.1732C19.7115 14.1731 19.7115 14.173 19.7115 14.1729C19.7115 14.1727 19.7115 14.1726 19.7115 14.1725C19.7115 14.1723 19.7115 14.1722 19.7115 14.1721C19.7115 14.172 19.7115 14.1718 19.7115 14.1717C19.7115 14.1716 19.7115 14.1714 19.7115 14.1713C19.7115 14.1712 19.7115 14.1711 19.7115 14.1709C19.7115 14.1708 19.7115 14.1707 19.7115 14.1705C19.7115 14.1704 19.7115 14.1703 19.7115 14.1702C19.7115 14.17 19.7115 14.1699 19.7115 14.1698C19.7115 14.1697 19.7115 14.1695 19.7115 14.1694C19.7115 14.1693 19.7115 14.1691 19.7115 14.169C19.7115 14.1689 19.7115 14.1688 19.7115 14.1686C19.7115 14.1685 19.7115 14.1684 19.7115 14.1682C19.7115 14.1681 19.7115 14.168 19.7115 14.1679C19.7115 14.1677 19.7115 14.1676 19.7115 14.1675C19.7115 14.1674 19.7115 14.1672 19.7115 14.1671C19.7115 14.167 19.7115 14.1668 19.7115 14.1667C19.7115 14.1666 19.7115 14.1665 19.7115 14.1663C19.7115 14.1662 19.7115 14.1661 19.7115 14.166C19.7115 14.1658 19.7115 14.1657 19.7115 14.1656C19.7115 14.1654 19.7115 14.1653 19.7115 14.1652C19.7115 14.1651 19.7115 14.1649 19.7115 14.1648C19.7115 14.1647 19.7115 14.1646 19.7115 14.1644C19.7115 14.1643 19.7115 14.1642 19.7115 14.164C19.7115 14.1639 19.7115 14.1638 19.7115 14.1637C19.7115 14.1635 19.7115 14.1634 19.7115 14.1633C19.7115 14.1632 19.7115 14.163 19.7115 14.1629C19.7115 14.1628 19.7115 14.1626 19.7115 14.1625C19.7115 14.1624 19.7115 14.1623 19.7115 14.1621C19.7115 14.162 19.7115 14.1619 19.7115 14.1618C19.7115 14.1616 19.7115 14.1615 19.7115 14.1614C19.7115 14.1613 19.7115 14.1611 19.7115 14.161C19.7115 14.1609 19.7115 14.1607 19.7115 14.1606C19.7115 14.1605 19.7115 14.1604 19.7115 14.1602C19.7115 14.1601 19.7115 14.16 19.7115 14.1599C19.7115 14.1597 19.7115 14.1596 19.7115 14.1595C19.7115 14.1594 19.7115 14.1592 19.7115 14.1591C19.7115 14.159 19.7115 14.1588 19.7115 14.1587C19.7115 14.1586 19.7115 14.1585 19.7115 14.1583C19.7115 14.1582 19.7115 14.1581 19.7115 14.158C19.7115 14.1578 19.7115 14.1577 19.7115 14.1576C19.7115 14.1575 19.7115 14.1573 19.7115 14.1572C19.7115 14.1571 19.7115 14.1569 19.7115 14.1568C19.7115 14.1567 19.7115 14.1566 19.7115 14.1564C19.7115 14.1563 19.7115 14.1562 19.7115 14.1561C19.7115 14.1559 19.7115 14.1558 19.7115 14.1557C19.7115 14.1556 19.7115 14.1554 19.7115 14.1553C19.7115 14.1552 19.7115 14.1551 19.7115 14.1549C19.7115 14.1548 19.7115 14.1547 19.7115 14.1545C19.7115 14.1544 19.7115 14.1543 19.7115 14.1542C19.7115 14.154 19.7115 14.1539 19.7115 14.1538C19.7115 14.1537 19.7115 14.1535 19.7115 14.1534C19.7115 14.1533 19.7115 14.1532 19.7115 14.153C19.7115 14.1529 19.7115 14.1528 19.7115 14.1527C19.7115 14.1525 19.7115 14.1524 19.7115 14.1523C19.7115 14.1522 19.7115 14.152 19.7115 14.1519C19.7115 14.1518 19.7115 14.1516 19.7115 14.1515C19.7115 14.1514 19.7115 14.1513 19.7115 14.1511C19.7115 14.151 19.7115 14.1509 19.7115 14.1508C19.7115 14.1506 19.7115 14.1505 19.7115 14.1504C19.7115 14.1503 19.7115 14.1501 19.7115 14.15C19.7115 14.1499 19.7115 14.1498 19.7115 14.1496C19.7115 14.1495 19.7115 14.1494 19.7115 14.1493C19.7115 14.1491 19.7115 14.149 19.7115 14.1489C19.7115 14.1488 19.7115 14.1486 19.7115 14.1485C19.7115 14.1484 19.7115 14.1483 19.7115 14.1481C19.7115 14.148 19.7115 14.1479 19.7115 14.1478C19.7115 14.1476 19.7115 14.1475 19.7115 14.1474C19.7115 14.1473 19.7115 14.1471 19.7115 14.147C19.7115 14.1469 19.7115 14.1468 19.7115 14.1466C19.7115 14.1465 19.7115 14.1464 19.7115 14.1463C19.7115 14.1461 19.7115 14.146 19.7115 14.1459C19.7115 14.1458 19.7115 14.1456 19.7115 14.1455C19.7115 14.1454 19.7115 14.1453 19.7115 14.1451C19.7115 14.145 19.7115 14.1449 19.7115 14.1447C19.7115 14.1446 19.7115 14.1445 19.7115 14.1444C19.7115 14.1442 19.7115 14.1441 19.7115 14.144H18.7115H17.7115C17.7115 14.1441 17.7115 14.1442 17.7115 14.1444C17.7115 14.1445 17.7115 14.1446 17.7115 14.1447C17.7115 14.1449 17.7115 14.145 17.7115 14.1451C17.7115 14.1453 17.7115 14.1454 17.7115 14.1455C17.7115 14.1456 17.7115 14.1458 17.7115 14.1459C17.7115 14.146 17.7115 14.1461 17.7115 14.1463C17.7115 14.1464 17.7115 14.1465 17.7115 14.1466C17.7115 14.1468 17.7115 14.1469 17.7115 14.147C17.7115 14.1471 17.7115 14.1473 17.7115 14.1474C17.7115 14.1475 17.7115 14.1476 17.7115 14.1478C17.7115 14.1479 17.7115 14.148 17.7115 14.1481C17.7115 14.1483 17.7115 14.1484 17.7115 14.1485C17.7115 14.1486 17.7115 14.1488 17.7115 14.1489C17.7115 14.149 17.7115 14.1491 17.7115 14.1493C17.7115 14.1494 17.7115 14.1495 17.7115 14.1496C17.7115 14.1498 17.7115 14.1499 17.7115 14.15C17.7115 14.1501 17.7115 14.1503 17.7115 14.1504C17.7115 14.1505 17.7115 14.1506 17.7115 14.1508C17.7115 14.1509 17.7115 14.151 17.7115 14.1511C17.7115 14.1513 17.7115 14.1514 17.7115 14.1515C17.7115 14.1516 17.7115 14.1518 17.7115 14.1519C17.7115 14.152 17.7115 14.1522 17.7115 14.1523C17.7115 14.1524 17.7115 14.1525 17.7115 14.1527C17.7115 14.1528 17.7115 14.1529 17.7115 14.153C17.7115 14.1532 17.7115 14.1533 17.7115 14.1534C17.7115 14.1535 17.7115 14.1537 17.7115 14.1538C17.7115 14.1539 17.7115 14.154 17.7115 14.1542C17.7115 14.1543 17.7115 14.1544 17.7115 14.1545C17.7115 14.1547 17.7115 14.1548 17.7115 14.1549C17.7115 14.1551 17.7115 14.1552 17.7115 14.1553C17.7115 14.1554 17.7115 14.1556 17.7115 14.1557C17.7115 14.1558 17.7115 14.1559 17.7115 14.1561C17.7115 14.1562 17.7115 14.1563 17.7115 14.1564C17.7115 14.1566 17.7115 14.1567 17.7115 14.1568C17.7115 14.1569 17.7115 14.1571 17.7115 14.1572C17.7115 14.1573 17.7115 14.1575 17.7115 14.1576C17.7115 14.1577 17.7115 14.1578 17.7115 14.158C17.7115 14.1581 17.7115 14.1582 17.7115 14.1583C17.7115 14.1585 17.7115 14.1586 17.7115 14.1587C17.7115 14.1588 17.7115 14.159 17.7115 14.1591C17.7115 14.1592 17.7115 14.1594 17.7115 14.1595C17.7115 14.1596 17.7115 14.1597 17.7115 14.1599C17.7115 14.16 17.7115 14.1601 17.7115 14.1602C17.7115 14.1604 17.7115 14.1605 17.7115 14.1606C17.7115 14.1607 17.7115 14.1609 17.7115 14.161C17.7115 14.1611 17.7115 14.1613 17.7115 14.1614C17.7115 14.1615 17.7115 14.1616 17.7115 14.1618C17.7115 14.1619 17.7115 14.162 17.7115 14.1621C17.7115 14.1623 17.7115 14.1624 17.7115 14.1625C17.7115 14.1626 17.7115 14.1628 17.7115 14.1629C17.7115 14.163 17.7115 14.1632 17.7115 14.1633C17.7115 14.1634 17.7115 14.1635 17.7115 14.1637C17.7115 14.1638 17.7115 14.1639 17.7115 14.164C17.7115 14.1642 17.7115 14.1643 17.7115 14.1644C17.7115 14.1646 17.7115 14.1647 17.7115 14.1648C17.7115 14.1649 17.7115 14.1651 17.7115 14.1652C17.7115 14.1653 17.7115 14.1654 17.7115 14.1656C17.7115 14.1657 17.7115 14.1658 17.7115 14.166C17.7115 14.1661 17.7115 14.1662 17.7115 14.1663C17.7115 14.1665 17.7115 14.1666 17.7115 14.1667C17.7115 14.1668 17.7115 14.167 17.7115 14.1671C17.7115 14.1672 17.7115 14.1674 17.7115 14.1675C17.7115 14.1676 17.7115 14.1677 17.7115 14.1679C17.7115 14.168 17.7115 14.1681 17.7115 14.1682C17.7115 14.1684 17.7115 14.1685 17.7115 14.1686C17.7115 14.1688 17.7115 14.1689 17.7115 14.169C17.7115 14.1691 17.7115 14.1693 17.7115 14.1694C17.7115 14.1695 17.7115 14.1697 17.7115 14.1698C17.7115 14.1699 17.7115 14.17 17.7115 14.1702C17.7115 14.1703 17.7115 14.1704 17.7115 14.1705C17.7115 14.1707 17.7115 14.1708 17.7115 14.1709C17.7115 14.1711 17.7115 14.1712 17.7115 14.1713C17.7115 14.1714 17.7115 14.1716 17.7115 14.1717C17.7115 14.1718 17.7115 14.172 17.7115 14.1721C17.7115 14.1722 17.7115 14.1723 17.7115 14.1725C17.7115 14.1726 17.7115 14.1727 17.7115 14.1729C17.7115 14.173 17.7115 14.1731 17.7115 14.1732C17.7115 14.1734 17.7115 14.1735 17.7115 14.1736C17.7115 14.1737 17.7115 14.1739 17.7115 14.174C17.7115 14.1741 17.7115 14.1743 17.7115 14.1744C17.7115 14.1745 17.7115 14.1746 17.7115 14.1748C17.7115 14.1749 17.7115 14.175 17.7115 14.1752C17.7115 14.1753 17.7115 14.1754 17.7115 14.1755C17.7115 14.1757 17.7115 14.1758 17.7115 14.1759C17.7115 14.1761 17.7115 14.1762 17.7115 14.1763C17.7115 14.1764 17.7115 14.1766 17.7115 14.1767C17.7115 14.1768 17.7115 14.177 17.7115 14.1771C17.7115 14.1772 17.7115 14.1773 17.7115 14.1775C17.7115 14.1776 17.7115 14.1777 17.7115 14.1779C17.7115 14.178 17.7115 14.1781 17.7115 14.1782C17.7115 14.1784 17.7115 14.1785 17.7115 14.1786C17.7115 14.1788 17.7115 14.1789 17.7115 14.179C17.7115 14.1791 17.7115 14.1793 17.7115 14.1794C17.7115 14.1795 17.7115 14.1797 17.7115 14.1798C17.7115 14.1799 17.7115 14.18 17.7115 14.1802C17.7115 14.1803 17.7115 14.1804 17.7115 14.1806C17.7115 14.1807 17.7115 14.1808 17.7115 14.1809C17.7115 14.1811 17.7115 14.1812 17.7115 14.1813C17.7115 14.1815 17.7115 14.1816 17.7115 14.1817C17.7115 14.1819 17.7115 14.182 17.7115 14.1821C17.7115 14.1822 17.7115 14.1824 17.7115 14.1825C17.7115 14.1826 17.7115 14.1828 17.7115 14.1829C17.7115 14.183 17.7115 14.1831 17.7115 14.1833C17.7115 14.1834 17.7115 14.1835 17.7115 14.1837C17.7115 14.1838 17.7115 14.1839 17.7115 14.184C17.7115 14.1842 17.7115 14.1843 17.7115 14.1844C17.7115 14.1846 17.7115 14.1847 17.7115 14.1848C17.7115 14.185 17.7115 14.1851 17.7115 14.1852C17.7115 14.1853 17.7115 14.1855 17.7115 14.1856C17.7115 14.1857 17.7115 14.1859 17.7115 14.186C17.7115 14.1861 17.7115 14.1862 17.7115 14.1864C17.7115 14.1865 17.7115 14.1866 17.7115 14.1868C17.7115 14.1869 17.7115 14.187 17.7115 14.1872C17.7115 14.1873 17.7115 14.1874 17.7115 14.1875C17.7115 14.1877 17.7115 14.1878 17.7115 14.1879C17.7115 14.1881 17.7115 14.1882 17.7115 14.1883C17.7115 14.1885 17.7115 14.1886 17.7115 14.1887C17.7115 14.1888 17.7115 14.189 17.7115 14.1891C17.7115 14.1892 17.7115 14.1894 17.7115 14.1895C17.7115 14.1896 17.7115 14.1897 17.7115 14.1899C17.7115 14.19 17.7115 14.1901 17.7115 14.1903C17.7115 14.1904 17.7115 14.1905 17.7115 14.1907C17.7115 14.1908 17.7115 14.1909 17.7115 14.191C17.7115 14.1912 17.7115 14.1913 17.7115 14.1914C17.7115 14.1916 17.7115 14.1917 17.7115 14.1918C17.7115 14.192 17.7115 14.1921 17.7115 14.1922C17.7115 14.1923 17.7115 14.1925 17.7115 14.1926C17.7115 14.1927 17.7115 14.1929 17.7115 14.193C17.7115 14.1931 17.7115 14.1933 17.7115 14.1934C17.7115 14.1935 17.7115 14.1937 17.7115 14.1938C17.7115 14.1939 17.7115 14.194 17.7115 14.1942C17.7115 14.1943 17.7115 14.1944 17.7115 14.1946C17.7115 14.1947 17.7115 14.1948 17.7115 14.195C17.7115 14.1951 17.7115 14.1952 17.7115 14.1953C17.7115 14.1955 17.7115 14.1956 17.7115 14.1957C17.7115 14.1959 17.7115 14.196 17.7115 14.1961C17.7115 14.1963 17.7115 14.1964 17.7115 14.1965C17.7115 14.1967 17.7115 14.1968 17.7115 14.1969C17.7115 14.197 17.7115 14.1972 17.7115 14.1973C17.7115 14.1974 17.7115 14.1976 17.7115 14.1977C17.7115 14.1978 17.7115 14.198 17.7115 14.1981C17.7115 14.1982 17.7115 14.1983 17.7115 14.1985C17.7115 14.1986 17.7115 14.1987 17.7115 14.1989C17.7115 14.199 17.7115 14.1991 17.7115 14.1993C17.7115 14.1994 17.7115 14.1995 17.7115 14.1997C17.7115 14.1998 17.7115 14.1999 17.7115 14.2001C17.7115 14.2002 17.7115 14.2003 17.7115 14.2004C17.7115 14.2006 17.7115 14.2007 17.7115 14.2008C17.7115 14.201 17.7115 14.2011 17.7115 14.2012C17.7115 14.2014 17.7115 14.2015 17.7115 14.2016C17.7115 14.2018 17.7115 14.2019 17.7115 14.202C17.7115 14.2021 17.7115 14.2023 17.7115 14.2024C17.7115 14.2025 17.7115 14.2027 17.7115 14.2028C17.7115 14.2029 17.7115 14.2031 17.7115 14.2032C17.7115 14.2033 17.7115 14.2035 17.7115 14.2036C17.7115 14.2037 17.7115 14.2039 17.7115 14.204C17.7115 14.2041 17.7115 14.2042 17.7115 14.2044C17.7115 14.2045 17.7115 14.2046 17.7115 14.2048C17.7115 14.2049 17.7115 14.205 17.7115 14.2052C17.7115 14.2053 17.7115 14.2054 17.7115 14.2056C17.7115 14.2057 17.7115 14.2058 17.7115 14.206C17.7115 14.2061 17.7115 14.2062 17.7115 14.2064C17.7115 14.2065 17.7115 14.2066 17.7115 14.2067C17.7115 14.2069 17.7115 14.207 17.7115 14.2071C17.7115 14.2073 17.7115 14.2074 17.7115 14.2075C17.7115 14.2077 17.7115 14.2078 17.7115 14.2079C17.7115 14.2081 17.7115 14.2082 17.7115 14.2083C17.7115 14.2085 17.7115 14.2086 17.7115 14.2087C17.7115 14.2089 17.7115 14.209 17.7115 14.2091C17.7115 14.2092 17.7115 14.2094 17.7115 14.2095C17.7115 14.2096 17.7115 14.2098 17.7115 14.2099C17.7115 14.21 17.7115 14.2102 17.7115 14.2103C17.7115 14.2104 17.7115 14.2106 17.7115 14.2107C17.7115 14.2108 17.7115 14.211 17.7115 14.2111C17.7115 14.2112 17.7115 14.2114 17.7115 14.2115C17.7115 14.2116 17.7115 14.2118 17.7115 14.2119C17.7115 14.212 17.7115 14.2122 17.7115 14.2123C17.7115 14.2124 17.7115 14.2126 17.7115 14.2127C17.7115 14.2128 17.7115 14.2129 17.7115 14.2131C17.7115 14.2132 17.7115 14.2133 17.7115 14.2135C17.7115 14.2136 17.7115 14.2137 17.7115 14.2139C17.7115 14.214 17.7115 14.2141 17.7115 14.2143C17.7115 14.2144 17.7115 14.2145 17.7115 14.2147C17.7115 14.2148 17.7115 14.2149 17.7115 14.2151C17.7115 14.2152 17.7115 14.2153 17.7115 14.2155C17.7115 14.2156 17.7115 14.2157 17.7115 14.2159C17.7115 14.216 17.7115 14.2161 17.7115 14.2163C17.7115 14.2164 17.7115 14.2165 17.7115 14.2167C17.7115 14.2168 17.7115 14.2169 17.7115 14.2171C17.7115 14.2172 17.7115 14.2173 17.7115 14.2175C17.7115 14.2176 17.7115 14.2177 17.7115 14.2179C17.7115 14.218 17.7115 14.2181 17.7115 14.2182C17.7115 14.2184 17.7115 14.2185 17.7115 14.2186C17.7115 14.2188 17.7115 14.2189 17.7115 14.219C17.7115 14.2192 17.7115 14.2193 17.7115 14.2194C17.7115 14.2196 17.7115 14.2197 17.7115 14.2198C17.7115 14.22 17.7115 14.2201 17.7115 14.2202C17.7115 14.2204 17.7115 14.2205 17.7115 14.2206C17.7115 14.2208 17.7115 14.2209 17.7115 14.221C17.7115 14.2212 17.7115 14.2213 17.7115 14.2214C17.7115 14.2216 17.7115 14.2217 17.7115 14.2218C17.7115 14.222 17.7115 14.2221 17.7115 14.2222C17.7115 14.2224 17.7115 14.2225 17.7115 14.2226C17.7115 14.2228 17.7115 14.2229 17.7115 14.223C17.7115 14.2232 17.7115 14.2233 17.7115 14.2234C17.7115 14.2236 17.7115 14.2237 17.7115 14.2238C17.7115 14.224 17.7115 14.2241 17.7115 14.2242C17.7115 14.2244 17.7115 14.2245 17.7115 14.2246C17.7115 14.2248 17.7115 14.2249 17.7115 14.225C17.7115 14.2252 17.7115 14.2253 17.7115 14.2254C17.7115 14.2256 17.7115 14.2257 17.7115 14.2258C17.7115 14.226 17.7115 14.2261 17.7115 14.2262C17.7115 14.2264 17.7115 14.2265 17.7115 14.2266C17.7115 14.2268 17.7115 14.2269 17.7115 14.227C17.7115 14.2272 17.7115 14.2273 17.7115 14.2274C17.7115 14.2276 17.7115 14.2277 17.7115 14.2278C17.7115 14.228 17.7115 14.2281 17.7115 14.2282C17.7115 14.2284 17.7115 14.2285 17.7115 14.2287C17.7115 14.2288 17.7115 14.2289 17.7115 14.2291C17.7115 14.2292 17.7115 14.2293 17.7115 14.2295C17.7115 14.2296 17.7115 14.2297 17.7115 14.2299C17.7115 14.23 17.7115 14.2301 17.7115 14.2303C17.7115 14.2304 17.7115 14.2305 17.7115 14.2307C17.7115 14.2308 17.7115 14.2309 17.7115 14.2311C17.7115 14.2312 17.7115 14.2313 17.7115 14.2315C17.7115 14.2316 17.7115 14.2317 17.7115 14.2319C17.7115 14.232 17.7115 14.2321 17.7115 14.2323C17.7115 14.2324 17.7115 14.2325 17.7115 14.2327C17.7115 14.2328 17.7115 14.2329 17.7115 14.2331C17.7115 14.2332 17.7115 14.2333 17.7115 14.2335C17.7115 14.2336 17.7115 14.2337 17.7115 14.2339C17.7115 14.234 17.7115 14.2342 17.7115 14.2343C17.7115 14.2344 17.7115 14.2346 17.7115 14.2347C17.7115 14.2348 17.7115 14.235 17.7115 14.2351C17.7115 14.2352 17.7115 14.2354 17.7115 14.2355C17.7115 14.2356 17.7115 14.2358 17.7115 14.2359C17.7115 14.236 17.7115 14.2362 17.7115 14.2363C17.7115 14.2364 17.7115 14.2366 17.7115 14.2367C17.7115 14.2368 17.7115 14.237 17.7115 14.2371C17.7115 14.2372 17.7115 14.2374 17.7115 14.2375C17.7115 14.2376 17.7115 14.2378 17.7115 14.2379C17.7115 14.2381 17.7115 14.2382 17.7115 14.2383C17.7115 14.2385 17.7115 14.2386 17.7115 14.2387C17.7115 14.2389 17.7115 14.239 17.7115 14.2391C17.7115 14.2393 17.7115 14.2394 17.7115 14.2395C17.7115 14.2397 17.7115 14.2398 17.7115 14.2399C17.7115 14.2401 17.7115 14.2402 17.7115 14.2403C17.7115 14.2405 17.7115 14.2406 17.7115 14.2408C17.7115 14.2409 17.7115 14.241 17.7115 14.2412C17.7115 14.2413 17.7115 14.2414 17.7115 14.2416C17.7115 14.2417 17.7115 14.2418 17.7115 14.242C17.7115 14.2421 17.7115 14.2422 17.7115 14.2424C17.7115 14.2425 17.7115 14.2426 17.7115 14.2428C17.7115 14.2429 17.7115 14.2431 17.7115 14.2432C17.7115 14.2433 17.7115 14.2435 17.7115 14.2436C17.7115 14.2437 17.7115 14.2439 17.7115 14.244C17.7115 14.2441 17.7115 14.2443 17.7115 14.2444C17.7115 14.2445 17.7115 14.2447 17.7115 14.2448C17.7115 14.2449 17.7115 14.2451 17.7115 14.2452C17.7115 14.2454 17.7115 14.2455 17.7115 14.2456C17.7115 14.2458 17.7115 14.2459 17.7115 14.246C17.7115 14.2462 17.7115 14.2463 17.7115 14.2464C17.7115 14.2466 17.7115 14.2467 17.7115 14.2468C17.7115 14.247 17.7115 14.2471 17.7115 14.2473C17.7115 14.2474 17.7115 14.2475 17.7115 14.2477C17.7115 14.2478 17.7115 14.2479 17.7115 14.2481C17.7115 14.2482 17.7115 14.2483 17.7115 14.2485C17.7115 14.2486 17.7115 14.2487 17.7115 14.2489C17.7115 14.249 17.7115 14.2492 17.7115 14.2493C17.7115 14.2494 17.7115 14.2496 17.7115 14.2497C17.7115 14.2498 17.7115 14.25 17.7115 14.2501C17.7115 14.2502 17.7115 14.2504 17.7115 14.2505C17.7115 14.2507 17.7115 14.2508 17.7115 14.2509C17.7115 14.2511 17.7115 14.2512 17.7115 14.2513C17.7115 14.2515 17.7115 14.2516 17.7115 14.2517C17.7115 14.2519 17.7115 14.252 17.7115 14.2521C17.7115 14.2523 17.7115 14.2524 17.7115 14.2526C17.7115 14.2527 17.7115 14.2528 17.7115 14.253C17.7115 14.2531 17.7115 14.2532 17.7115 14.2534C17.7115 14.2535 17.7115 14.2536 17.7115 14.2538C17.7115 14.2539 17.7115 14.2541 17.7115 14.2542C17.7115 14.2543 17.7115 14.2545 17.7115 14.2546C17.7115 14.2547 17.7115 14.2549 17.7115 14.255C17.7115 14.2551 17.7115 14.2553 17.7115 14.2554C17.7115 14.2556 17.7115 14.2557 17.7115 14.2558C17.7115 14.256 17.7115 14.2561 17.7115 14.2562C17.7115 14.2564 17.7115 14.2565 17.7115 14.2567C17.7115 14.2568 17.7115 14.2569 17.7115 14.2571C17.7115 14.2572 17.7115 14.2573 17.7115 14.2575C17.7115 14.2576 17.7115 14.2577 17.7115 14.2579C17.7115 14.258 17.7115 14.2582 17.7115 14.2583C17.7115 14.2584 17.7115 14.2586 17.7115 14.2587C17.7115 14.2588 17.7115 14.259 17.7115 14.2591C17.7115 14.2593 17.7115 14.2594 17.7115 14.2595C17.7115 14.2597 17.7115 14.2598 17.7115 14.2599C17.7115 14.2601 17.7115 14.2602 17.7115 14.2603C17.7115 14.2605 17.7115 14.2606 17.7115 14.2608C17.7115 14.2609 17.7115 14.261 17.7115 14.2612C17.7115 14.2613 17.7115 14.2614 17.7115 14.2616C17.7115 14.2617 17.7115 14.2619 17.7115 14.262C17.7115 14.2621 17.7115 14.2623 17.7115 14.2624C17.7115 14.2625 17.7115 14.2627 17.7115 14.2628C17.7115 14.263 17.7115 14.2631 17.7115 14.2632C17.7115 14.2634 17.7115 14.2635 17.7115 14.2636C17.7115 14.2638 17.7115 14.2639 17.7115 14.2641C17.7115 14.2642 17.7115 14.2643 17.7115 14.2645C17.7115 14.2646 17.7115 14.2647 17.7115 14.2649C17.7115 14.265 17.7115 14.2652 17.7115 14.2653C17.7115 14.2654 17.7115 14.2656 17.7115 14.2657C17.7115 14.2658 17.7115 14.266 17.7115 14.2661C17.7115 14.2663 17.7115 14.2664 17.7115 14.2665C17.7115 14.2667 17.7115 14.2668 17.7115 14.2669C17.7115 14.2671 17.7115 14.2672 17.7115 14.2674C17.7115 14.2675 17.7115 14.2676 17.7115 14.2678C17.7115 14.2679 17.7115 14.268 17.7115 14.2682C17.7115 14.2683 17.7115 14.2685 17.7115 14.2686C17.7115 14.2687 17.7115 14.2689 17.7115 14.269C17.7115 14.2691 17.7115 14.2693 17.7115 14.2694C17.7115 14.2696 17.7115 14.2697 17.7115 14.2698C17.7115 14.27 17.7115 14.2701 17.7115 14.2702C17.7115 14.2704 17.7115 14.2705 17.7115 14.2707C17.7115 14.2708 17.7115 14.2709 17.7115 14.2711C17.7115 14.2712 17.7115 14.2714 17.7115 14.2715C17.7115 14.2716 17.7115 14.2718 17.7115 14.2719C17.7115 14.272 17.7115 14.2722 17.7115 14.2723C17.7115 14.2725 17.7115 14.2726 17.7115 14.2727C17.7115 14.2729 17.7115 14.273 17.7115 14.2732C17.7115 14.2733 17.7115 14.2734 17.7115 14.2736C17.7115 14.2737 17.7115 14.2738 17.7115 14.274C17.7115 14.2741 17.7115 14.2743 17.7115 14.2744C17.7115 14.2745 17.7115 14.2747 17.7115 14.2748C17.7115 14.275 17.7115 14.2751 17.7115 14.2752C17.7115 14.2754 17.7115 14.2755 17.7115 14.2756C17.7115 14.2758 17.7115 14.2759 17.7115 14.2761C17.7115 14.2762 17.7115 14.2763 17.7115 14.2765C17.7115 14.2766 17.7115 14.2768 17.7115 14.2769C17.7115 14.277 17.7115 14.2772 17.7115 14.2773C17.7115 14.2774 17.7115 14.2776 17.7115 14.2777C17.7115 14.2779 17.7115 14.278 17.7115 14.2781C17.7115 14.2783 17.7115 14.2784 17.7115 14.2786C17.7115 14.2787 17.7115 14.2788 17.7115 14.279C17.7115 14.2791 17.7115 14.2792 17.7115 14.2794C17.7115 14.2795 17.7115 14.2797 17.7115 14.2798C17.7115 14.2799 17.7115 14.2801 17.7115 14.2802C17.7115 14.2804 17.7115 14.2805 17.7115 14.2806C17.7115 14.2808 17.7115 14.2809 17.7115 14.2811C17.7115 14.2812 17.7115 14.2813 17.7115 14.2815C17.7115 14.2816 17.7115 14.2818 17.7115 14.2819C17.7115 14.282 17.7115 14.2822 17.7115 14.2823C17.7115 14.2824 17.7115 14.2826 17.7115 14.2827C17.7115 14.2829 17.7115 14.283 17.7115 14.2831C17.7115 14.2833 17.7115 14.2834 17.7115 14.2836C17.7115 14.2837 17.7115 14.2838 17.7115 14.284C17.7115 14.2841 17.7115 14.2843 17.7115 14.2844C17.7115 14.2845 17.7115 14.2847 17.7115 14.2848C17.7115 14.285 17.7115 14.2851 17.7115 14.2852C17.7115 14.2854 17.7115 14.2855 17.7115 14.2857C17.7115 14.2858 17.7115 14.2859 17.7115 14.2861C17.7115 14.2862 17.7115 14.2864 17.7115 14.2865C17.7115 14.2866 17.7115 14.2868 17.7115 14.2869C17.7115 14.287 17.7115 14.2872 17.7115 14.2873C17.7115 14.2875 17.7115 14.2876 17.7115 14.2877C17.7115 14.2879 17.7115 14.288 17.7115 14.2882C17.7115 14.2883 17.7115 14.2884 17.7115 14.2886C17.7115 14.2887 17.7115 14.2889 17.7115 14.289C17.7115 14.2891 17.7115 14.2893 17.7115 14.2894C17.7115 14.2896 17.7115 14.2897 17.7115 14.2898C17.7115 14.29 17.7115 14.2901 17.7115 14.2903C17.7115 14.2904 17.7115 14.2905 17.7115 14.2907C17.7115 14.2908 17.7115 14.291 17.7115 14.2911C17.7115 14.2912 17.7115 14.2914 17.7115 14.2915C17.7115 14.2917 17.7115 14.2918 17.7115 14.2919C17.7115 14.2921 17.7115 14.2922 17.7115 14.2924C17.7115 14.2925 17.7115 14.2926 17.7115 14.2928C17.7115 14.2929 17.7115 14.2931 17.7115 14.2932C17.7115 14.2933 17.7115 14.2935 17.7115 14.2936C17.7115 14.2938 17.7115 14.2939 17.7115 14.294C17.7115 14.2942 17.7115 14.2943 17.7115 14.2945C17.7115 14.2946 17.7115 14.2948 17.7115 14.2949C17.7115 14.295 17.7115 14.2952 17.7115 14.2953C17.7115 14.2955 17.7115 14.2956 17.7115 14.2957C17.7115 14.2959 17.7115 14.296 17.7115 14.2962C17.7115 14.2963 17.7115 14.2964 17.7115 14.2966C17.7115 14.2967 17.7115 14.2969 17.7115 14.297C17.7115 14.2971 17.7115 14.2973 17.7115 14.2974C17.7115 14.2976 17.7115 14.2977 17.7115 14.2978C17.7115 14.298 17.7115 14.2981 17.7115 14.2983C17.7115 14.2984 17.7115 14.2985 17.7115 14.2987C17.7115 14.2988 17.7115 14.299 17.7115 14.2991C17.7115 14.2993 17.7115 14.2994 17.7115 14.2995C17.7115 14.2997 17.7115 14.2998 17.7115 14.3C17.7115 14.3001 17.7115 14.3002 17.7115 14.3004C17.7115 14.3005 17.7115 14.3007 17.7115 14.3008C17.7115 14.3009 17.7115 14.3011 17.7115 14.3012C17.7115 14.3014 17.7115 14.3015 17.7115 14.3016C17.7115 14.3018 17.7115 14.3019 17.7115 14.3021C17.7115 14.3022 17.7115 14.3024 17.7115 14.3025C17.7115 14.3026 17.7115 14.3028 17.7115 14.3029C17.7115 14.3031 17.7115 14.3032 17.7115 14.3033C17.7115 14.3035 17.7115 14.3036 17.7115 14.3038C17.7115 14.3039 17.7115 14.304 17.7115 14.3042C17.7115 14.3043 17.7115 14.3045 17.7115 14.3046C17.7115 14.3048 17.7115 14.3049 17.7115 14.305C17.7115 14.3052 17.7115 14.3053 17.7115 14.3055C17.7115 14.3056 17.7115 14.3057 17.7115 14.3059C17.7115 14.306 17.7115 14.3062 17.7115 14.3063C17.7115 14.3065 17.7115 14.3066 17.7115 14.3067C17.7115 14.3069 17.7115 14.307 17.7115 14.3072C17.7115 14.3073 17.7115 14.3074 17.7115 14.3076C17.7115 14.3077 17.7115 14.3079 17.7115 14.308C17.7115 14.3082 17.7115 14.3083 17.7115 14.3084C17.7115 14.3086 17.7115 14.3087 17.7115 14.3089C17.7115 14.309 17.7115 14.3091 17.7115 14.3093C17.7115 14.3094 17.7115 14.3096 17.7115 14.3097C17.7115 14.3099 17.7115 14.31 17.7115 14.3101C17.7115 14.3103 17.7115 14.3104 17.7115 14.3106C17.7115 14.3107 17.7115 14.3108 17.7115 14.311C17.7115 14.3111 17.7115 14.3113 17.7115 14.3114C17.7115 14.3116 17.7115 14.3117 17.7115 14.3118C17.7115 14.312 17.7115 14.3121 17.7115 14.3123C17.7115 14.3124 17.7115 14.3126 17.7115 14.3127C17.7115 14.3128 17.7115 14.313 17.7115 14.3131C17.7115 14.3133 17.7115 14.3134 17.7115 14.3135C17.7115 14.3137 17.7115 14.3138 17.7115 14.314C17.7115 14.3141 17.7115 14.3143 17.7115 14.3144C17.7115 14.3145 17.7115 14.3147 17.7115 14.3148C17.7115 14.315 17.7115 14.3151 17.7115 14.3153C17.7115 14.3154 17.7115 14.3155 17.7115 14.3157C17.7115 14.3158 17.7115 14.316 17.7115 14.3161C17.7115 14.3163 17.7115 14.3164 17.7115 14.3165C17.7115 14.3167 17.7115 14.3168 17.7115 14.317C17.7115 14.3171 17.7115 14.3172 17.7115 14.3174C17.7115 14.3175 17.7115 14.3177 17.7115 14.3178C17.7115 14.318 17.7115 14.3181 17.7115 14.3182C17.7115 14.3184 17.7115 14.3185 17.7115 14.3187C17.7115 14.3188 17.7115 14.319 17.7115 14.3191C17.7115 14.3192 17.7115 14.3194 17.7115 14.3195C17.7115 14.3197 17.7115 14.3198 17.7115 14.32C17.7115 14.3201 17.7115 14.3202 17.7115 14.3204C17.7115 14.3205 17.7115 14.3207 17.7115 14.3208C17.7115 14.321 17.7115 14.3211 17.7115 14.3212C17.7115 14.3214 17.7115 14.3215 17.7115 14.3217C17.7115 14.3218 17.7115 14.322 17.7115 14.3221C17.7115 14.3222 17.7115 14.3224 17.7115 14.3225C17.7115 14.3227 17.7115 14.3228 17.7115 14.323C17.7115 14.3231 17.7115 14.3232 17.7115 14.3234C17.7115 14.3235 17.7115 14.3237 17.7115 14.3238C17.7115 14.324 17.7115 14.3241 17.7115 14.3242C17.7115 14.3244 17.7115 14.3245 17.7115 14.3247C17.7115 14.3248 17.7115 14.325 17.7115 14.3251C17.7115 14.3253 17.7115 14.3254 17.7115 14.3255C17.7115 14.3257 17.7115 14.3258 17.7115 14.326C17.7115 14.3261 17.7115 14.3263 17.7115 14.3264C17.7115 14.3265 17.7115 14.3267 17.7115 14.3268C17.7115 14.327 17.7115 14.3271 17.7115 14.3273C17.7115 14.3274 17.7115 14.3275 17.7115 14.3277C17.7115 14.3278 17.7115 14.328 17.7115 14.3281C17.7115 14.3283 17.7115 14.3284 17.7115 14.3286C17.7115 14.3287 17.7115 14.3288 17.7115 14.329C17.7115 14.3291 17.7115 14.3293 17.7115 14.3294C17.7115 14.3296 17.7115 14.3297 17.7115 14.3298C17.7115 14.33 17.7115 14.3301 17.7115 14.3303C17.7115 14.3304 17.7115 14.3306 17.7115 14.3307C17.7115 14.3309 17.7115 14.331 17.7115 14.3311C17.7115 14.3313 17.7115 14.3314 17.7115 14.3316C17.7115 14.3317 17.7115 14.3319 17.7115 14.332C17.7115 14.3321 17.7115 14.3323 17.7115 14.3324C17.7115 14.3326 17.7115 14.3327 17.7115 14.3329C17.7115 14.333 17.7115 14.3332 17.7115 14.3333C17.7115 14.3334 17.7115 14.3336 17.7115 14.3337C17.7115 14.3339 17.7115 14.334 17.7115 14.3342C17.7115 14.3343 17.7115 14.3345 17.7115 14.3346C17.7115 14.3347 17.7115 14.3349 17.7115 14.335C17.7115 14.3352 17.7115 14.3353 17.7115 14.3355C17.7115 14.3356 17.7115 14.3358 17.7115 14.3359C17.7115 14.336 17.7115 14.3362 17.7115 14.3363C17.7115 14.3365 17.7115 14.3366 17.7115 14.3368C17.7115 14.3369 17.7115 14.3371 17.7115 14.3372C17.7115 14.3373 17.7115 14.3375 17.7115 14.3376C17.7115 14.3378 17.7115 14.3379 17.7115 14.3381C17.7115 14.3382 17.7115 14.3384 17.7115 14.3385C17.7115 14.3386 17.7115 14.3388 17.7115 14.3389C17.7115 14.3391 17.7115 14.3392 17.7115 14.3394C17.7115 14.3395 17.7115 14.3397 17.7115 14.3398C17.7115 14.3399 17.7115 14.3401 17.7115 14.3402C17.7115 14.3404 17.7115 14.3405 17.7115 14.3407C17.7115 14.3408 17.7115 14.341 17.7115 14.3411C17.7115 14.3412 17.7115 14.3414 17.7115 14.3415C17.7115 14.3417 17.7115 14.3418 17.7115 14.342C17.7115 14.3421 17.7115 14.3423 17.7115 14.3424C17.7115 14.3425 17.7115 14.3427 17.7115 14.3428C17.7115 14.343 17.7115 14.3431 17.7115 14.3433C17.7115 14.3434 17.7115 14.3436 17.7115 14.3437C17.7115 14.3439 17.7115 14.344 17.7115 14.3441C17.7115 14.3443 17.7115 14.3444 17.7115 14.3446C17.7115 14.3447 17.7115 14.3449 17.7115 14.345C17.7115 14.3452 17.7115 14.3453 17.7115 14.3455C17.7115 14.3456 17.7115 14.3457 17.7115 14.3459C17.7115 14.346 17.7115 14.3462 17.7115 14.3463C17.7115 14.3465 17.7115 14.3466 17.7115 14.3468C17.7115 14.3469 17.7115 14.347 17.7115 14.3472C17.7115 14.3473 17.7115 14.3475 17.7115 14.3476C17.7115 14.3478 17.7115 14.3479 17.7115 14.3481C17.7115 14.3482 17.7115 14.3484 17.7115 14.3485C17.7115 14.3486 17.7115 14.3488 17.7115 14.3489C17.7115 14.3491 17.7115 14.3492 17.7115 14.3494C17.7115 14.3495 17.7115 14.3497 17.7115 14.3498C17.7115 14.35 17.7115 14.3501 17.7115 14.3503C17.7115 14.3504 17.7115 14.3505 17.7115 14.3507C17.7115 14.3508 17.7115 14.351 17.7115 14.3511C17.7115 14.3513 17.7115 14.3514 17.7115 14.3516C17.7115 14.3517 17.7115 14.3519 17.7115 14.352H18.7115ZM18.7115 14.144H19.7115C19.7115 13.4274 19.9231 12.9202 20.2953 12.5341L19.5755 11.84L18.8557 11.1459C18.0759 11.9545 17.7115 12.9832 17.7115 14.144H18.7115ZM19.5755 11.84L20.305 12.5239C20.6026 12.2065 21.0578 11.9551 21.7618 11.8334L21.5915 10.848L21.4212 9.86261C20.3972 10.0396 19.5084 10.4495 18.846 11.1561L19.5755 11.84ZM21.5915 10.848L21.7329 11.8379L21.8449 11.8219L21.7035 10.832L21.5621 9.84205L21.4501 9.85805L21.5915 10.848ZM21.7035 10.832H22.7035V10.416H21.7035H20.7035V10.832H21.7035ZM21.7035 13.36H22.7035C22.7035 12.9058 22.7022 12.561 22.6994 12.3282C22.6981 12.2132 22.6963 12.1186 22.6939 12.0497C22.6928 12.0179 22.691 11.9775 22.6879 11.9392C22.6867 11.9249 22.6831 11.8821 22.6742 11.8315C22.6711 11.814 22.6589 11.7435 22.628 11.6587C22.6147 11.6223 22.5753 11.5181 22.4914 11.4049C22.4254 11.3158 22.1655 11 21.6875 11V12V13C21.2098 13 20.9503 12.6844 20.8846 12.5958C20.801 12.483 20.762 12.3795 20.749 12.344C20.7187 12.2609 20.7071 12.1931 20.7047 12.1791C20.697 12.1356 20.6946 12.1035 20.6946 12.1033C20.6938 12.0933 20.6942 12.0955 20.6951 12.1203C20.6967 12.1648 20.6983 12.2402 20.6996 12.3518C20.7022 12.5723 20.7035 12.9075 20.7035 13.36H21.7035ZM21.6875 12L21.4128 11.0385L21.3008 11.0705L21.5755 12.032L21.8502 12.9935L21.9622 12.9615L21.6875 12ZM21.5755 12.032L21.333 11.0619C20.6182 11.2406 19.9803 11.6382 19.636 12.3471L20.5355 12.784L21.435 13.2209C21.4534 13.1831 21.5088 13.0794 21.818 13.0021L21.5755 12.032ZM20.5355 12.784L19.6531 12.3134C19.4998 12.601 19.4124 12.9122 19.3932 13.2373L20.3915 13.296L21.3898 13.3547C21.392 13.3172 21.4005 13.287 21.4179 13.2546L20.5355 12.784ZM20.3915 13.296L19.392 13.2638C19.3725 13.8684 19.5877 14.4105 19.9768 14.8526L20.7275 14.192L21.4782 13.5314C21.398 13.4402 21.3892 13.3849 21.391 13.3282L20.3915 13.296ZM20.7275 14.192L20.0204 14.8991C20.4007 15.2794 20.8585 15.5435 21.381 15.6741L21.6235 14.704L21.866 13.7339C21.7058 13.6938 21.5663 13.6166 21.4346 13.4849L20.7275 14.192ZM21.6235 14.704L21.2521 15.6325L21.3321 15.6645L21.7035 14.736L22.0749 13.8075L21.9949 13.7755L21.6235 14.704ZM21.7035 14.736H22.7035V13.36H21.7035H20.7035V14.736H21.7035ZM23.0315 17.792L23.4376 16.8782C23.3859 16.8552 23.3351 16.8332 23.2909 16.8155C23.2701 16.8072 23.2387 16.795 23.2037 16.7833C23.1868 16.7777 23.1569 16.7681 23.12 16.7589C23.1033 16.7547 23.002 16.728 22.8715 16.728V17.728V18.728C22.7966 18.728 22.738 18.7194 22.7096 18.7146C22.677 18.7092 22.6511 18.7032 22.635 18.6991C22.6034 18.6913 22.5802 18.6837 22.5713 18.6807C22.5523 18.6744 22.5423 18.6701 22.5481 18.6725C22.5573 18.6761 22.5811 18.6862 22.6254 18.7058L23.0315 17.792ZM22.8715 17.728V16.728C22.3272 16.728 22.0665 17.1305 22.0298 17.1876C21.9587 17.2982 21.9269 17.3969 21.9171 17.4279C21.8929 17.5044 21.8834 17.5674 21.8811 17.5828C21.8741 17.6281 21.8713 17.6669 21.8703 17.6813C21.8676 17.7186 21.8661 17.7597 21.865 17.7954C21.8626 17.8713 21.8609 17.9776 21.8596 18.1098C21.8568 18.3764 21.8555 18.7726 21.8555 19.296H22.8555H23.8555C23.8555 18.7741 23.8568 18.3862 23.8594 18.1302C23.8608 18.0011 23.8624 17.9114 23.864 17.8566C23.8649 17.827 23.8655 17.819 23.8652 17.8237C23.8651 17.8259 23.8646 17.8317 23.8638 17.8399C23.8631 17.847 23.8614 17.8635 23.8581 17.8854C23.8563 17.8967 23.8475 17.9567 23.824 18.0311C23.8144 18.0612 23.7829 18.1591 23.7122 18.2691C23.6759 18.3256 23.6036 18.4261 23.4822 18.5198C23.3523 18.62 23.1434 18.728 22.8715 18.728V17.728ZM22.8555 19.296H21.8555C21.8555 19.8247 21.8568 20.2249 21.8596 20.4941C21.8609 20.6276 21.8626 20.7348 21.865 20.8113C21.8661 20.8473 21.8676 20.8885 21.8702 20.9258C21.8713 20.9402 21.874 20.9787 21.8808 21.0236C21.8832 21.0389 21.8924 21.1014 21.9162 21.1773C21.9258 21.208 21.9572 21.3062 22.0273 21.4165C22.0619 21.4707 22.3224 21.88 22.8715 21.88V20.88V19.88C23.1463 19.88 23.3566 19.9903 23.4861 20.0912C23.6072 20.1856 23.6789 20.2866 23.7147 20.3427C23.7845 20.4525 23.8155 20.5499 23.8248 20.5796C23.8479 20.6535 23.8566 20.7129 23.8583 20.724C23.8616 20.7456 23.8632 20.762 23.8639 20.7689C23.8647 20.777 23.8651 20.7827 23.8653 20.7847C23.8656 20.789 23.865 20.7807 23.864 20.7507C23.8624 20.6952 23.8608 20.6044 23.8594 20.4739C23.8568 20.2151 23.8555 19.8233 23.8555 19.296H22.8555ZM22.8715 20.88L23.2158 21.8189L23.6958 21.6429L23.3515 20.704L23.0072 19.7651L22.5272 19.9411L22.8715 20.88ZM23.3515 20.704L23.8207 21.5871C24.3632 21.2989 24.7727 20.8554 24.9918 20.2711L24.0555 19.92L23.1192 19.5689C23.0823 19.6673 23.0224 19.7465 22.8823 19.8209L23.3515 20.704ZM24.0555 19.92L24.99 20.276C25.1738 19.7936 25.2415 19.2767 25.1222 18.7564C25.0028 18.236 24.7164 17.8003 24.3399 17.4469L23.6555 18.176L22.9711 18.9051C23.1173 19.0423 23.1588 19.1427 23.1728 19.2036C23.1868 19.2647 23.1932 19.3744 23.121 19.564L24.0555 19.92ZM23.6555 18.176L24.3626 17.4689C24.0829 17.1892 23.745 16.9915 23.3826 16.8557L23.0315 17.792L22.6804 18.7283C22.83 18.7845 22.9081 18.8428 22.9484 18.8831L23.6555 18.176Z" fill="#B48282" style="mix-blend-mode:soft-light" mask="url(#path-2-outside-1_1_14)"/>
<defs>
<filter id="filter0_di_1_14" x="-4" y="-4" width="40" height="44" filterUnits="userSpaceOnUse" color-interpolation-filters="sRGB">
<feFlood flood-opacity="0" result="BackgroundImageFix"/>
<feColorMatrix in="SourceAlpha" type="matrix" values="0 0 0 0 0 0 0 0 0 0 0 0 0 0 0 0 0 0 127 0" result="hardAlpha"/>
<feOffset dy="4"/>
<feGaussianBlur stdDeviation="2"/>
<feComposite in2="hardAlpha" operator="out"/>
<feColorMatrix type="matrix" values="0 0 0 0 0 0 0 0 0 0 0 0 0 0 0 0 0 0 0.25 0"/>
<feBlend mode="normal" in2="BackgroundImageFix" result="effect1_dropShadow_1_14"/>
<feBlend mode="normal" in="SourceGraphic" in2="effect1_dropShadow_1_14" result="shape"/>
<feColorMatrix in="SourceAlpha" type="matrix" values="0 0 0 0 0 0 0 0 0 0 0 0 0 0 0 0 0 0 127 0" result="hardAlpha"/>
<feMorphology radius="5" operator="erode" in="SourceAlpha" result="effect2_innerShadow_1_14"/>
<feOffset dx="-4" dy="-4"/>
<feGaussianBlur stdDeviation="2.5"/>
<feComposite in2="hardAlpha" operator="arithmetic" k2="-1" k3="1"/>
<feColorMatrix type="matrix" values="0 0 0 0 0.353365 0 0 0 0 0.234869 0 0 0 0 0.0900402 0 0 0 1 0"/>
<feBlend mode="normal" in2="shape" result="effect2_innerShadow_1_14"/>
</filter>
</defs>
</svg>
